<svg xmlns="http://www.w3.org/2000/svg" viewBox="0 0 53 53"><defs><style>.cls-1{fill:#1b3249;}</style></defs><title>Asset 151</title><g id="Layer_2" data-name="Layer 2"><g id="_1" data-name="1"><path class="cls-1" d="M9.73,53a9.85,9.85,0,0,1-3.19-.54.49.49,0,0,1-.32-.36.5.5,0,0,1,.13-.47l6.45-6.45-1.05-3.92-3.92-1L1.38,46.65a.5.5,0,0,1-.47.13.49.49,0,0,1-.36-.32,9.66,9.66,0,0,1,10.69-12.7L33.75,11.24a9.67,9.67,0,1,1,8,8L19.24,41.76A9.67,9.67,0,0,1,9.73,53ZM7.65,51.73a8.67,8.67,0,0,0,10.57-10,.52.52,0,0,1,.13-.45L41.23,18.36a.51.51,0,0,1,.45-.14,8.68,8.68,0,1,0-6.9-6.9.51.51,0,0,1-.14.45L11.76,34.65a.52.52,0,0,1-.45.13,8.67,8.67,0,0,0-10,10.57l6.06-6.06a.48.48,0,0,1,.48-.13l4.48,1.2a.48.48,0,0,1,.35.35l1.2,4.48a.48.48,0,0,1-.13.48Z"/><path class="cls-1" d="M46.66,53a6.2,6.2,0,0,1-4.37-1.81L26.7,35.6a.5.5,0,0,1,.71-.71L43,50.48a5.19,5.19,0,0,0,7.33,0l.15-.15a5.18,5.18,0,0,0,0-7.33L34.89,27.41a.5.5,0,0,1,.71-.71L51.19,42.29a6.19,6.19,0,0,1,0,8.75l-.15.15A6.2,6.2,0,0,1,46.66,53Z"/><path class="cls-1" d="M20.39,23.81a.51.51,0,0,1-.36-.15L7.85,11.49,2.57,8.66a.49.49,0,0,1-.18-.17L.08,4.93a.49.49,0,0,1,.07-.62L4.31.15A.49.49,0,0,1,4.93.08L8.49,2.39a.42.42,0,0,1,.17.18l2.83,5.28L23.67,20a.51.51,0,0,1,0,.71.5.5,0,0,1-.71,0L10.73,8.51a.47.47,0,0,1-.09-.12L7.84,3.15l-3.11-2L1.14,4.73l2,3.11,5.23,2.8a.47.47,0,0,1,.12.09L20.74,23a.5.5,0,0,1-.35.85Z"/><path class="cls-1" d="M42.31,45.68a.51.51,0,0,1-.36-.15L31.36,34.94a.5.5,0,1,1,.71-.71L42.66,44.82a.51.51,0,0,1,0,.71A.5.5,0,0,1,42.31,45.68Z"/><path class="cls-1" d="M45.18,42.81a.51.51,0,0,1-.36-.15L34.23,32.07a.5.5,0,1,1,.71-.71L45.53,42a.5.5,0,0,1,0,.71A.5.5,0,0,1,45.18,42.81Z"/><path class="cls-1" d="M44.5,14.68l-.13,0-4.48-1.2a.51.51,0,0,1-.35-.35l-1.2-4.48a.48.48,0,0,1,.13-.48l3.28-3.28a.47.47,0,0,1,.48-.13l4.48,1.2a.51.51,0,0,1,.35.35l1.2,4.48a.48.48,0,0,1-.13.48l-3.28,3.28A.47.47,0,0,1,44.5,14.68Zm-4.07-2.11,3.92,1,2.87-2.87-1-3.92-3.92-1L39.38,8.65Z"/><path class="cls-1" d="M42.65,51.34a.51.51,0,0,1-.36-.15.51.51,0,0,1,0-.71l8.19-8.19a.5.5,0,0,1,.71.71L43,51.19A.5.5,0,0,1,42.65,51.34Z"/></g></g></svg>