<svg xmlns="http://www.w3.org/2000/svg" viewBox="0 0 53 53"><defs><style>.cls-1{fill:#1b3249;}</style></defs><title>Asset 181</title><g id="Layer_2" data-name="Layer 2"><g id="_1" data-name="1"><path class="cls-1" d="M26.5,15.25a.5.5,0,0,1-.5-.5v-1a.5.5,0,0,1,1,0v1A.5.5,0,0,1,26.5,15.25Z"/><path class="cls-1" d="M26.5,18.25a.5.5,0,0,1-.5-.5v-1a.5.5,0,0,1,1,0v1A.5.5,0,0,1,26.5,18.25Z"/><path class="cls-1" d="M26.5,21.25a.5.5,0,0,1-.5-.5v-1a.5.5,0,0,1,1,0v1A.5.5,0,0,1,26.5,21.25Z"/><path class="cls-1" d="M26.5,24.25a.5.5,0,0,1-.5-.5v-1a.5.5,0,0,1,1,0v1A.5.5,0,0,1,26.5,24.25Z"/><path class="cls-1" d="M20.5,15.25a.5.5,0,0,1-.5-.5v-1a.5.5,0,0,1,1,0v1A.5.5,0,0,1,20.5,15.25Z"/><path class="cls-1" d="M20.5,18.25a.5.5,0,0,1-.5-.5v-1a.5.5,0,0,1,1,0v1A.5.5,0,0,1,20.5,18.25Z"/><path class="cls-1" d="M20.5,21.25a.5.5,0,0,1-.5-.5v-1a.5.5,0,0,1,1,0v1A.5.5,0,0,1,20.5,21.25Z"/><path class="cls-1" d="M20.5,24.25a.5.5,0,0,1-.5-.5v-1a.5.5,0,0,1,1,0v1A.5.5,0,0,1,20.5,24.25Z"/><path class="cls-1" d="M32.5,15.25a.5.5,0,0,1-.5-.5v-1a.5.5,0,0,1,1,0v1A.5.5,0,0,1,32.5,15.25Z"/><path class="cls-1" d="M32.5,18.25a.5.5,0,0,1-.5-.5v-1a.5.5,0,0,1,1,0v1A.5.5,0,0,1,32.5,18.25Z"/><path class="cls-1" d="M32.5,21.25a.5.5,0,0,1-.5-.5v-1a.5.5,0,0,1,1,0v1A.5.5,0,0,1,32.5,21.25Z"/><path class="cls-1" d="M32.5,24.25a.5.5,0,0,1-.5-.5v-1a.5.5,0,0,1,1,0v1A.5.5,0,0,1,32.5,24.25Z"/><path class="cls-1" d="M26.5,27.25a.5.5,0,0,1-.5-.5v-1a.5.5,0,0,1,1,0v1A.5.5,0,0,1,26.5,27.25Z"/><path class="cls-1" d="M20.5,27.25a.5.5,0,0,1-.5-.5v-1a.5.5,0,0,1,1,0v1A.5.5,0,0,1,20.5,27.25Z"/><path class="cls-1" d="M32.5,27.25a.5.5,0,0,1-.5-.5v-1a.5.5,0,0,1,1,0v1A.5.5,0,0,1,32.5,27.25Z"/><path class="cls-1" d="M23.5,13.75a.5.5,0,0,1-.5-.5v-1a.5.5,0,0,1,1,0v1A.5.5,0,0,1,23.5,13.75Z"/><path class="cls-1" d="M23.5,16.75a.5.5,0,0,1-.5-.5v-1a.5.5,0,0,1,1,0v1A.5.5,0,0,1,23.5,16.75Z"/><path class="cls-1" d="M23.5,19.75a.5.5,0,0,1-.5-.5v-1a.5.5,0,0,1,1,0v1A.5.5,0,0,1,23.5,19.75Z"/><path class="cls-1" d="M23.5,22.75a.5.5,0,0,1-.5-.5v-1a.5.5,0,0,1,1,0v1A.5.5,0,0,1,23.5,22.75Z"/><path class="cls-1" d="M29.5,13.75a.5.5,0,0,1-.5-.5v-1a.5.5,0,0,1,1,0v1A.5.5,0,0,1,29.5,13.75Z"/><path class="cls-1" d="M29.5,16.75a.5.5,0,0,1-.5-.5v-1a.5.5,0,0,1,1,0v1A.5.5,0,0,1,29.5,16.75Z"/><path class="cls-1" d="M29.5,19.75a.5.5,0,0,1-.5-.5v-1a.5.5,0,0,1,1,0v1A.5.5,0,0,1,29.5,19.75Z"/><path class="cls-1" d="M29.5,22.75a.5.5,0,0,1-.5-.5v-1a.5.5,0,0,1,1,0v1A.5.5,0,0,1,29.5,22.75Z"/><path class="cls-1" d="M23.5,25.75a.5.5,0,0,1-.5-.5v-1a.5.5,0,0,1,1,0v1A.5.5,0,0,1,23.5,25.75Z"/><path class="cls-1" d="M29.5,25.75a.5.5,0,0,1-.5-.5v-1a.5.5,0,0,1,1,0v1A.5.5,0,0,1,29.5,25.75Z"/><path class="cls-1" d="M38.5,29a.5.5,0,0,1-.5-.5V4.5A3.5,3.5,0,0,0,34.5,1h-4A3.5,3.5,0,0,0,27,4.5a.5.5,0,0,1-1,0A4.51,4.51,0,0,1,30.5,0h4A4.51,4.51,0,0,1,39,4.5v24A.5.5,0,0,1,38.5,29Z"/><path class="cls-1" d="M33.5,11h-14a.5.5,0,0,1-.5-.5A6.51,6.51,0,0,1,25.5,4h2A6.51,6.51,0,0,1,34,10.5.5.5,0,0,1,33.5,11ZM20,10H33A5.52,5.52,0,0,0,27.5,5h-2A5.52,5.52,0,0,0,20,10Z"/><path class="cls-1" d="M50.5,33H2.5a2.5,2.5,0,0,1,0-5h48a2.5,2.5,0,0,1,0,5Zm-48-4a1.5,1.5,0,0,0,0,3h48a1.5,1.5,0,0,0,0-3Z"/><path class="cls-1" d="M42.5,49h-32A8.51,8.51,0,0,1,2,40.5v-8a.5.5,0,0,1,.5-.5h48a.5.5,0,0,1,.5.5v8A8.51,8.51,0,0,1,42.5,49ZM3,33v7.5A7.5,7.5,0,0,0,10.5,48h32A7.5,7.5,0,0,0,50,40.5V33Z"/><path class="cls-1" d="M35.5,46h-5a.5.5,0,0,1,0-1h5a.5.5,0,0,1,0,1Z"/><path class="cls-1" d="M27.5,46h-17A5.51,5.51,0,0,1,5,40.5a.5.5,0,0,1,1,0A4.51,4.51,0,0,0,10.5,45h17a.5.5,0,0,1,0,1Z"/><path class="cls-1" d="M41.5,53h-2A1.5,1.5,0,0,1,38,51.5v-3a.5.5,0,0,1,.5-.5h4a.5.5,0,0,1,.5.5v3A1.5,1.5,0,0,1,41.5,53ZM39,49v2.5a.5.5,0,0,0,.5.5h2a.5.5,0,0,0,.5-.5V49Z"/><path class="cls-1" d="M13.5,53h-2A1.5,1.5,0,0,1,10,51.5v-3a.5.5,0,0,1,.5-.5h4a.5.5,0,0,1,.5.5v3A1.5,1.5,0,0,1,13.5,53ZM11,49v2.5a.5.5,0,0,0,.5.5h2a.5.5,0,0,0,.5-.5V49Z"/><path class="cls-1" d="M34.5,11h-16a.5.5,0,0,1,0-1h16a.5.5,0,0,1,0,1Z"/></g></g></svg>