<svg xmlns="http://www.w3.org/2000/svg" viewBox="0 0 39 53"><defs><style>.cls-1{fill:#1b3249;}</style></defs><title>Asset 251</title><g id="Layer_2" data-name="Layer 2"><g id="_1" data-name="1"><path class="cls-1" d="M21.5,53h-4A4.51,4.51,0,0,1,13,48.5a.5.5,0,0,1,.5-.5h12a.5.5,0,0,1,.5.5A4.51,4.51,0,0,1,21.5,53ZM14,49a3.5,3.5,0,0,0,3.46,3h4A3.5,3.5,0,0,0,25,49Z"/><path class="cls-1" d="M28.5,41h-18A1.5,1.5,0,0,1,9,39.5V37.22a2.49,2.49,0,0,0-1-2A19.59,19.59,0,0,1,0,19.5.5.5,0,0,1,.5,19a.5.5,0,0,1,.5.5A18.55,18.55,0,0,0,8.58,34.41,3.49,3.49,0,0,1,10,37.22V39.5a.5.5,0,0,0,.5.5h18a.5.5,0,0,0,.5-.5V37.22a3.49,3.49,0,0,1,1.42-2.81A18.55,18.55,0,0,0,38,19.5a.5.5,0,0,1,1,0,19.59,19.59,0,0,1-8,15.72,2.49,2.49,0,0,0-1,2V39.5A1.5,1.5,0,0,1,28.5,41Z"/><path class="cls-1" d="M38.5,20a.5.5,0,0,1-.5-.5,18.5,18.5,0,0,0-37,0,.5.5,0,0,1-.5.5.5.5,0,0,1-.5-.5,19.5,19.5,0,0,1,39,0A.5.5,0,0,1,38.5,20Z"/><path class="cls-1" d="M27,45H12a2.5,2.5,0,0,1,0-5H27a2.5,2.5,0,0,1,0,5ZM12,41a1.5,1.5,0,0,0,0,3H27a1.5,1.5,0,0,0,0-3Z"/><path class="cls-1" d="M27,49H12a2.5,2.5,0,0,1,0-5H27a2.5,2.5,0,0,1,0,5ZM12,45a1.5,1.5,0,0,0,0,3H27a1.5,1.5,0,0,0,0-3Z"/><path class="cls-1" d="M6.5,20h-3a.5.5,0,0,1,0-1h3a.5.5,0,0,1,0,1Z"/><path class="cls-1" d="M35.5,20h-3a.5.5,0,0,1,0-1h3a.5.5,0,0,1,0,1Z"/><path class="cls-1" d="M19.5,7a.5.5,0,0,1-.5-.5v-3a.5.5,0,1,1,1,0v3A.5.5,0,0,1,19.5,7Z"/><path class="cls-1" d="M13,8.78a.5.5,0,0,1-.43-.25l-1.5-2.6a.5.5,0,1,1,.86-.5L13.43,8a.49.49,0,0,1-.18.68A.47.47,0,0,1,13,8.78Z"/><path class="cls-1" d="M33.36,28a.45.45,0,0,1-.25-.07l-2.6-1.5a.5.5,0,1,1,.5-.86l2.6,1.5a.5.5,0,0,1-.25.93Z"/><path class="cls-1" d="M8.24,13.54A.47.47,0,0,1,8,13.47L5.39,12a.5.5,0,1,1,.5-.86l2.6,1.5a.5.5,0,0,1-.25.93Z"/><path class="cls-1" d="M30.76,13.54a.5.5,0,0,1-.25-.93l2.6-1.5a.5.5,0,1,1,.5.86L31,13.47A.47.47,0,0,1,30.76,13.54Z"/><path class="cls-1" d="M5.64,28a.5.5,0,0,1-.25-.93L8,25.61a.5.5,0,0,1,.5.86L5.89,28A.45.45,0,0,1,5.64,28Z"/><path class="cls-1" d="M26,8.78a.47.47,0,0,1-.25-.07A.49.49,0,0,1,25.57,8l1.5-2.6a.5.5,0,0,1,.86.5l-1.5,2.6A.5.5,0,0,1,26,8.78Z"/><path class="cls-1" d="M22.5,41h-6a.5.5,0,0,1-.5-.5V27.64l-4.92-7.87a.5.5,0,0,1-.05-.43.47.47,0,0,1,.29-.31L14,18a.53.53,0,0,1,.35,0l2.49.94L19.33,18a.53.53,0,0,1,.35,0l2.49.94L24.66,18A.53.53,0,0,1,25,18l2.67,1a.47.47,0,0,1,.29.31.5.5,0,0,1,0,.43L23,27.64V40.5A.5.5,0,0,1,22.5,41ZM17,40h5V27.5a.53.53,0,0,1,.08-.27l4.67-7.48L24.84,19,22.35,20A.53.53,0,0,1,22,20L19.51,19,17,20a.53.53,0,0,1-.35,0L14.17,19l-1.92.72,4.67,7.48a.53.53,0,0,1,.08.27Z"/></g></g></svg>