<svg xmlns="http://www.w3.org/2000/svg" viewBox="0 0 53 53"><defs><style>.cls-1{fill:#1b3249;}</style></defs><title>Asset 111</title><g id="Layer_2" data-name="Layer 2"><g id="_1" data-name="1"><path class="cls-1" d="M18.63,46.18a.51.51,0,0,1-.36-.15L7,34.73A.51.51,0,0,1,7,34L36.32,4.67a.5.5,0,0,1,.71,0,.51.51,0,0,1,0,.71l-29,29L18.63,45l29-29a.5.5,0,0,1,.7,0,.5.5,0,0,1,0,.71L19,46A.49.49,0,0,1,18.63,46.18Z"/><path class="cls-1" d="M15.1,42.65a.53.53,0,0,1-.36-.15L10.5,38.26a.53.53,0,0,1-.15-.36.51.51,0,0,1,.15-.35L39.85,8.2a.5.5,0,0,1,.71,0,.51.51,0,0,1,0,.71l-29,29,3.54,3.54,29-29a.51.51,0,0,1,.71,0,.5.5,0,0,1,0,.71L15.45,42.5A.51.51,0,0,1,15.1,42.65Z"/><path class="cls-1" d="M10.15,53A4.47,4.47,0,0,1,7,51.68L1.32,46a4.49,4.49,0,0,1,0-6.36l2.82-2.82a.51.51,0,0,1,.71,0l11.3,11.3a.49.49,0,0,1,.15.36.47.47,0,0,1-.15.35l-2.82,2.82A4.47,4.47,0,0,1,10.15,53ZM4.5,37.91,2,40.38a3.49,3.49,0,0,0,0,4.95L7.67,51a3.59,3.59,0,0,0,4.95,0l2.47-2.47Z"/><path class="cls-1" d="M16.16,49.36a.54.54,0,0,1-.36-.14l-12-12a.52.52,0,0,1-.14-.36.5.5,0,0,1,.14-.35l2.83-2.83a.51.51,0,0,1,.71,0l12,12a.5.5,0,0,1,0,.71l-2.83,2.83A.5.5,0,0,1,16.16,49.36ZM4.84,36.84,16.16,48.16,18.28,46,7,34.72Z"/><path class="cls-1" d="M48,16.83l-.14,0a.51.51,0,0,1-.34-.62l4.27-15-15,4.27a.5.5,0,0,1-.62-.34.51.51,0,0,1,.35-.62L52.36,0a.49.49,0,0,1,.49.13A.49.49,0,0,1,53,.64L48.46,16.46A.5.5,0,0,1,48,16.83Z"/><path class="cls-1" d="M49.92,9.44a.49.49,0,0,1-.35-.14L43.7,3.43a.5.5,0,1,1,.71-.71l5.87,5.87a.51.51,0,0,1,0,.71A.5.5,0,0,1,49.92,9.44Z"/><path class="cls-1" d="M44.45,13.3h-.06a5.52,5.52,0,0,1-4.68-4.68.5.5,0,1,1,1-.11,4.5,4.5,0,0,0,3.8,3.8.5.5,0,0,1,0,1Z"/><path class="cls-1" d="M40.21,9.05h-.06a4.65,4.65,0,0,1-4-4,.5.5,0,0,1,1-.11,3.65,3.65,0,0,0,3.09,3.1.5.5,0,0,1,0,1Z"/><path class="cls-1" d="M48,16.83h0a4.65,4.65,0,0,1-4-4,.5.5,0,0,1,.44-.55.49.49,0,0,1,.55.44A3.65,3.65,0,0,0,48,15.83a.51.51,0,0,1,.44.56A.5.5,0,0,1,48,16.83Z"/><path class="cls-1" d="M42.33,53a.51.51,0,0,1-.36-.15L28.13,39a.5.5,0,0,1,0-.7.5.5,0,0,1,.71,0L42.33,51.79l9.46-9.46L38.3,28.84a.5.5,0,0,1,.71-.71L52.85,42a.5.5,0,0,1,0,.71L42.68,52.85A.5.5,0,0,1,42.33,53Z"/><path class="cls-1" d="M14.35,25a.51.51,0,0,1-.36-.15L.15,11a.5.5,0,0,1,0-.71L10.32.15a.5.5,0,0,1,.71,0L24.87,14a.5.5,0,0,1-.71.71L10.67,1.21,1.21,10.67,14.7,24.17a.48.48,0,0,1,0,.7A.5.5,0,0,1,14.35,25Z"/><path class="cls-1" d="M39.24,49.91a.46.46,0,0,1-.35-.14.5.5,0,0,1,0-.71L42,46a.5.5,0,0,1,.71,0,.51.51,0,0,1,0,.71l-3.11,3.1A.46.46,0,0,1,39.24,49.91Z"/><path class="cls-1" d="M36.2,46.87a.51.51,0,0,1-.36-.15.5.5,0,0,1,0-.7l4.52-4.52a.5.5,0,0,1,.71.71l-4.52,4.51A.5.5,0,0,1,36.2,46.87Z"/><path class="cls-1" d="M33.15,43.83a.49.49,0,0,1-.35-.15.5.5,0,0,1,0-.71l3.1-3.1a.5.5,0,0,1,.71.71l-3.1,3.1A.51.51,0,0,1,33.15,43.83Z"/><path class="cls-1" d="M30.11,40.78a.5.5,0,0,1-.35-.85l4.51-4.52a.5.5,0,0,1,.71.71l-4.52,4.52A.5.5,0,0,1,30.11,40.78Z"/><path class="cls-1" d="M12.72,23.39a.51.51,0,0,1-.36-.15.5.5,0,0,1,0-.7l3.11-3.1a.49.49,0,1,1,.7.7l-3.1,3.1A.5.5,0,0,1,12.72,23.39Z"/><path class="cls-1" d="M9.67,20.35a.49.49,0,0,1-.35-.15.5.5,0,0,1,0-.71L13.84,15a.49.49,0,0,1,.7.7L10,20.2A.51.51,0,0,1,9.67,20.35Z"/><path class="cls-1" d="M6.63,17.3a.46.46,0,0,1-.35-.14.5.5,0,0,1,0-.71l3.1-3.1a.5.5,0,0,1,.71,0,.5.5,0,0,1,0,.7L7,17.16A.46.46,0,0,1,6.63,17.3Z"/><path class="cls-1" d="M3.59,14.26a.51.51,0,0,1-.36-.15.5.5,0,0,1,0-.7L7.75,8.89a.5.5,0,0,1,.71,0,.51.51,0,0,1,0,.71L3.94,14.11A.5.5,0,0,1,3.59,14.26Z"/></g></g></svg>