<svg xmlns="http://www.w3.org/2000/svg" viewBox="0 0 53 53"><defs><style>.cls-1{fill:#1b3249;}</style></defs><title>Asset 11</title><g id="Layer_2" data-name="Layer 2"><g id="_1" data-name="1"><path class="cls-1" d="M46.5,53H6.5A6.51,6.51,0,0,1,0,46.5.5.5,0,0,1,.5,46a.5.5,0,0,1,.5.5A5.51,5.51,0,0,0,6.5,52h40A5.51,5.51,0,0,0,52,46.5a.5.5,0,0,1,1,0A6.51,6.51,0,0,1,46.5,53Z"/><path class="cls-1" d="M46.5,7H6.5a.5.5,0,0,1,0-1h40a.5.5,0,0,1,0,1Z"/><path class="cls-1" d="M52.5,47a.5.5,0,0,1-.5-.5A5.51,5.51,0,0,0,46.5,41a.5.5,0,0,1-.5-.5V.5a.5.5,0,0,1,.5-.5A6.51,6.51,0,0,1,53,6.5v40A.5.5,0,0,1,52.5,47ZM47,40a6.52,6.52,0,0,1,5,3V6.5A5.52,5.52,0,0,0,47,1Z"/><path class="cls-1" d="M.5,47a.5.5,0,0,1-.5-.5V6.5A6.51,6.51,0,0,1,6.5,0,.5.5,0,0,1,7,.5v40a.5.5,0,0,1-.5.5A5.51,5.51,0,0,0,1,46.5.5.5,0,0,1,.5,47ZM6,1A5.52,5.52,0,0,0,1,6.5V43a6.52,6.52,0,0,1,5-3Z"/><path class="cls-1" d="M26.5,44a14.62,14.62,0,0,1-2.35-.2.49.49,0,0,1-.41-.41L23,38.92l-.73-.3-3.66,2.65a.51.51,0,0,1-.59,0A14.62,14.62,0,0,1,14.72,38a.53.53,0,0,1,0-.59l2.66-3.66c-.11-.24-.21-.49-.3-.72l-4.47-.72a.51.51,0,0,1-.42-.41,14.63,14.63,0,0,1,0-4.7.52.52,0,0,1,.42-.42L17.08,26c.09-.23.19-.48.3-.72l-2.66-3.67a.53.53,0,0,1,0-.59,14.57,14.57,0,0,1,3.33-3.32.51.51,0,0,1,.59,0l3.66,2.66c.24-.11.48-.21.73-.3l.71-4.47a.49.49,0,0,1,.41-.41,14.05,14.05,0,0,1,4.71,0,.5.5,0,0,1,.41.41L30,20.08l.72.3,3.67-2.66a.5.5,0,0,1,.58,0A14.38,14.38,0,0,1,38.28,21a.49.49,0,0,1,0,.59l-2.66,3.66c.11.24.21.48.3.73l4.48.71a.51.51,0,0,1,.41.42,14.63,14.63,0,0,1,0,4.7.5.5,0,0,1-.41.41L35.92,33q-.14.36-.3.72l2.66,3.66a.49.49,0,0,1,0,.59A14.42,14.42,0,0,1,35,41.28a.5.5,0,0,1-.58,0L30.7,38.62l-.72.3-.71,4.47a.5.5,0,0,1-.41.41A14.74,14.74,0,0,1,26.5,44Zm2.27-.69h0Zm-4.1-.44a13.27,13.27,0,0,0,3.67,0l.7-4.4a.51.51,0,0,1,.33-.4,8.64,8.64,0,0,0,1.16-.48.51.51,0,0,1,.52,0l3.61,2.62a13.57,13.57,0,0,0,2.6-2.59l-2.62-3.61a.51.51,0,0,1,0-.52,8.94,8.94,0,0,0,.49-1.16.5.5,0,0,1,.39-.34l4.41-.7a14,14,0,0,0,0-3.66L35.47,27a.51.51,0,0,1-.39-.33,8.78,8.78,0,0,0-.48-1.16.47.47,0,0,1,0-.52l2.62-3.61a13.57,13.57,0,0,0-2.6-2.59l-3.61,2.62a.51.51,0,0,1-.52,0,7.68,7.68,0,0,0-1.16-.48.52.52,0,0,1-.33-.4l-.7-4.4a13.27,13.27,0,0,0-3.67,0l-.7,4.4a.5.5,0,0,1-.34.4,7.68,7.68,0,0,0-1.16.48.51.51,0,0,1-.52,0l-3.6-2.62a13.57,13.57,0,0,0-2.6,2.59L18.37,25a.49.49,0,0,1,0,.51,8.51,8.51,0,0,0-.48,1.17.51.51,0,0,1-.4.33l-4.4.71a12.95,12.95,0,0,0,0,3.66l4.4.7a.5.5,0,0,1,.4.34,8.64,8.64,0,0,0,.48,1.16.49.49,0,0,1,0,.52l-2.62,3.61a13.57,13.57,0,0,0,2.6,2.59L22,37.63a.51.51,0,0,1,.52,0,7.93,7.93,0,0,0,1.16.48.5.5,0,0,1,.34.4Z"/><path class="cls-1" d="M26.5,34.5a5,5,0,1,1,5-5A5,5,0,0,1,26.5,34.5Zm0-9a4,4,0,1,0,4,4A4,4,0,0,0,26.5,25.5Z"/></g></g></svg>