<svg xmlns="http://www.w3.org/2000/svg" viewBox="0 0 53 53"><defs><style>.cls-1{fill:#1b3249;}</style></defs><title>Asset 131</title><g id="Layer_2" data-name="Layer 2"><g id="_1" data-name="1"><path class="cls-1" d="M23.5,53H3.5A3.5,3.5,0,0,1,0,49.5v-6A3.5,3.5,0,0,1,3.5,40H5.78a1.49,1.49,0,0,0,1.48-1.28L9.92,21H7.5A7.5,7.5,0,0,1,0,13.5v-6A7.5,7.5,0,0,1,7.5,0h22A3.5,3.5,0,0,1,33,3.5v14A3.5,3.5,0,0,1,29.5,21H21.22a1.49,1.49,0,0,0-1.48,1.28L17.08,40H23.5A3.5,3.5,0,0,1,27,43.5v6A3.5,3.5,0,0,1,23.5,53ZM3.5,41A2.5,2.5,0,0,0,1,43.5v6A2.5,2.5,0,0,0,3.5,52h20A2.5,2.5,0,0,0,26,49.5v-6A2.5,2.5,0,0,0,23.5,41h-7a.5.5,0,0,1-.38-.17.49.49,0,0,1-.11-.4l2.74-18.3A2.5,2.5,0,0,1,21.22,20H29.5A2.5,2.5,0,0,0,32,17.5V3.5A2.5,2.5,0,0,0,29.5,1H7.5A6.51,6.51,0,0,0,1,7.5v6A6.51,6.51,0,0,0,7.5,20h3a.5.5,0,0,1,.38.17.49.49,0,0,1,.11.4L8.25,38.87A2.5,2.5,0,0,1,5.78,41Z"/><path class="cls-1" d="M35.5,16h-3a.5.5,0,0,1-.5-.5V5.5a.5.5,0,0,1,.5-.5h3a.47.47,0,0,1,.35.15l3,3A.47.47,0,0,1,39,8.5v4a.47.47,0,0,1-.15.35l-3,3A.47.47,0,0,1,35.5,16ZM33,15h2.29L38,12.29V8.71L35.29,6H33Z"/><path class="cls-1" d="M52.5,11h-14a.5.5,0,0,1,0-1h14a.5.5,0,0,1,0,1Z"/><path class="cls-1" d="M16.5,12.5H6.5a.5.5,0,0,1,0-1h10a.5.5,0,0,1,0,1Z"/><path class="cls-1" d="M16.5,15.5H6.5a.5.5,0,0,1,0-1h10a.5.5,0,0,1,0,1Z"/><path class="cls-1" d="M16.5,9.5H6.5a.5.5,0,0,1,0-1h10a.5.5,0,0,1,0,1Z"/><path class="cls-1" d="M16.5,6.5H6.5a.5.5,0,0,1,0-1h10a.5.5,0,0,1,0,1Z"/><path class="cls-1" d="M26.5,45H.5a.5.5,0,0,1,0-1h26a.5.5,0,0,1,0,1Z"/><path class="cls-1" d="M11.5,41h-6a.5.5,0,0,1,0-1h6a.5.5,0,0,1,0,1Z"/><path class="cls-1" d="M22.5,29H18.3a.5.5,0,1,1,0-1h4.2A1.5,1.5,0,0,0,24,26.5v-6a.5.5,0,0,1,1,0v6A2.5,2.5,0,0,1,22.5,29Z"/><path class="cls-1" d="M16.5,49h-6A1.5,1.5,0,0,1,9,47.5v-3a.5.5,0,0,1,.5-.5h8a.5.5,0,0,1,.5.5v3A1.5,1.5,0,0,1,16.5,49ZM10,45v2.5a.5.5,0,0,0,.5.5h6a.5.5,0,0,0,.5-.5V45Z"/><path class="cls-1" d="M27.5,21a.5.5,0,0,1-.5-.5V.5a.5.5,0,0,1,1,0v20A.5.5,0,0,1,27.5,21Z"/></g></g></svg>