<svg xmlns="http://www.w3.org/2000/svg" viewBox="0 0 53 53"><defs><style>.cls-1{fill:#1b3249;}</style></defs><title>Asset 171</title><g id="Layer_2" data-name="Layer 2"><g id="_1" data-name="1"><path class="cls-1" d="M46.5,33h-14a.5.5,0,0,1-.5-.5V17a.5.5,0,0,1,1,0V32H46.5A1.5,1.5,0,0,0,48,30.5V7.5A1.5,1.5,0,0,0,46.5,6h-12A1.5,1.5,0,0,0,33,7.5V10a.5.5,0,0,1-1,0V7.5A2.5,2.5,0,0,1,34.5,5h12A2.5,2.5,0,0,1,49,7.5v23A2.5,2.5,0,0,1,46.5,33Z"/><path class="cls-1" d="M46.5,6h-12A2.5,2.5,0,0,1,32,3.5v-1A2.5,2.5,0,0,1,34.5,0h12A2.5,2.5,0,0,1,49,2.5v1A2.5,2.5,0,0,1,46.5,6Zm-12-5A1.5,1.5,0,0,0,33,2.5v1A1.5,1.5,0,0,0,34.5,5h12A1.5,1.5,0,0,0,48,3.5v-1A1.5,1.5,0,0,0,46.5,1Z"/><path class="cls-1" d="M32.5,33H6.5a2.5,2.5,0,0,1,0-5h22A4.51,4.51,0,0,1,33,32.5.5.5,0,0,1,32.5,33Zm-26-4a1.5,1.5,0,0,0,0,3H32a3.5,3.5,0,0,0-3.46-3Z"/><path class="cls-1" d="M20.5,53h-.11a.5.5,0,0,1-.38-.6l1.46-6.56A1.49,1.49,0,0,0,20,44H16.5C10.18,44,4.71,39.46,4.06,33.67a1.53,1.53,0,0,1,.38-1.17A1.5,1.5,0,0,1,5.56,32H41.5A2.5,2.5,0,0,1,44,34.5v3.06a2.48,2.48,0,0,1-.9,1.92L38.76,43.1a1.49,1.49,0,0,0-.51,1.48L40,52.39a.5.5,0,0,1-.38.6.51.51,0,0,1-.6-.38L37.28,44.8a2.45,2.45,0,0,1,.84-2.46l4.34-3.62A1.52,1.52,0,0,0,43,37.56V34.5A1.5,1.5,0,0,0,41.5,33H5.56a.51.51,0,0,0-.5.56C5.65,38.85,10.68,43,16.5,43H20a2.48,2.48,0,0,1,1.95.94,2.51,2.51,0,0,1,.49,2.1L21,52.61A.5.5,0,0,1,20.5,53Z"/><path class="cls-1" d="M52.5,53H.5a.5.5,0,0,1,0-1h52a.5.5,0,0,1,0,1Z"/><path class="cls-1" d="M34.5,44h-15a.5.5,0,0,1,0-1h15a.5.5,0,0,1,0,1Z"/><path class="cls-1" d="M40.5,17a3.53,3.53,0,0,1-2.86-1.5H31a2,2,0,0,1,0-4h6.64A3.5,3.5,0,1,1,40.5,17ZM31,12.5a1,1,0,0,0,0,2h6.92a.5.5,0,0,1,.43.25A2.47,2.47,0,0,0,40.5,16a2.5,2.5,0,0,0,0-5,2.47,2.47,0,0,0-2.15,1.25.5.5,0,0,1-.43.25Z"/></g></g></svg>