<svg xmlns="http://www.w3.org/2000/svg" viewBox="0 0 53 53"><defs><style>.cls-1{fill:#1b3249;}</style></defs><title>Asset 311</title><g id="Layer_2" data-name="Layer 2"><g id="_1" data-name="1"><path class="cls-1" d="M26.5,53A26.5,26.5,0,1,1,53,26.5,26.53,26.53,0,0,1,26.5,53Zm0-52A25.5,25.5,0,1,0,52,26.5,25.53,25.53,0,0,0,26.5,1Z"/><path class="cls-1" d="M37.5,14a.5.5,0,0,1-.5-.5c0-3.37-3.18-6.35-7.74-7.24a.48.48,0,0,1-.39-.58.5.5,0,0,1,.58-.4c5,1,8.55,4.36,8.55,8.22A.5.5,0,0,1,37.5,14Z"/><path class="cls-1" d="M15.5,14a.5.5,0,0,1-.5-.5c0-3.86,3.51-7.24,8.55-8.22a.5.5,0,0,1,.58.4.48.48,0,0,1-.39.58C19.18,7.15,16,10.13,16,13.5A.5.5,0,0,1,15.5,14Z"/><path class="cls-1" d="M26.49,32.48a8.67,8.67,0,0,1-5.1-1.72,12.91,12.91,0,0,1-4.61-7,1.62,1.62,0,0,1-1.11-.41,4.09,4.09,0,0,1-1.22-2.75,4.33,4.33,0,0,1,.4-2.37.5.5,0,1,1,.88.46,3.39,3.39,0,0,0-.28,1.82,3.21,3.21,0,0,0,.86,2.07.66.66,0,0,0,.46.18.44.44,0,0,0,.15-.05.54.54,0,0,1,.43,0,.5.5,0,0,1,.27.33A12.05,12.05,0,0,0,22,30a7.56,7.56,0,0,0,9,0,12.05,12.05,0,0,0,4.35-6.87.49.49,0,0,1,.28-.33.51.51,0,0,1,.42,0,.58.58,0,0,0,.16.05.65.65,0,0,0,.45-.18,3.16,3.16,0,0,0,.87-2.07,3.39,3.39,0,0,0-.29-1.82.49.49,0,0,1,.21-.67.51.51,0,0,1,.68.21,4.42,4.42,0,0,1,.39,2.37,4,4,0,0,1-1.22,2.75,1.63,1.63,0,0,1-1.1.41,13,13,0,0,1-4.61,7A8.7,8.7,0,0,1,26.49,32.48Z"/><path class="cls-1" d="M26.5,39a.57.57,0,0,1-.28-.08l-6-4a.53.53,0,0,1-.2-.57l1.28-4.08a.49.49,0,0,1,.63-.32.49.49,0,0,1,.32.62l-1.16,3.72,5.69,3.79a.51.51,0,0,1,.14.7A.52.52,0,0,1,26.5,39Z"/><path class="cls-1" d="M22.5,42h-.08a.51.51,0,0,1-.34-.21l-4-6a.49.49,0,0,1-.06-.41.49.49,0,0,1,.26-.32l2-1a.5.5,0,0,1,.44.9l-1.49.74,3.39,5.09L26.2,38.1a.5.5,0,1,1,.6.8l-4,3A.47.47,0,0,1,22.5,42Z"/><path class="cls-1" d="M26.5,46a.5.5,0,0,1-.5-.5v-7a.5.5,0,0,1,1,0v7A.5.5,0,0,1,26.5,46Z"/><path class="cls-1" d="M26.5,46h-8A2.5,2.5,0,0,1,16,43.5V35.92a.5.5,0,0,1,1,0V43.5A1.5,1.5,0,0,0,18.5,45h8a.5.5,0,0,1,0,1Z"/><path class="cls-1" d="M46.41,43.72a.5.5,0,0,1-.5-.47A6.43,6.43,0,0,0,42.29,38a73,73,0,0,0-7.89-2A.5.5,0,0,1,34,35.4.5.5,0,0,1,34.6,35a74,74,0,0,1,8.11,2,7.47,7.47,0,0,1,4.2,6.16.5.5,0,0,1-.47.52Z"/><path class="cls-1" d="M6.59,43.72h0a.5.5,0,0,1-.48-.52A7.47,7.47,0,0,1,10.29,37a74,74,0,0,1,8.11-2,.5.5,0,1,1,.2,1,73,73,0,0,0-7.89,2,6.5,6.5,0,0,0-3.62,5.29A.5.5,0,0,1,6.59,43.72Z"/><path class="cls-1" d="M26.5,39a.52.52,0,0,1-.42-.22.51.51,0,0,1,.14-.7l5.69-3.79-1.16-3.72a.49.49,0,0,1,.32-.62.49.49,0,0,1,.63.32L33,34.35a.53.53,0,0,1-.2.57l-6,4A.57.57,0,0,1,26.5,39Z"/><path class="cls-1" d="M30.5,42a.47.47,0,0,1-.3-.1l-4-3a.5.5,0,0,1-.1-.7.51.51,0,0,1,.7-.1l3.58,2.68,3.39-5.09L32.28,35a.5.5,0,0,1,.44-.9l2,1a.49.49,0,0,1,.26.32.49.49,0,0,1-.06.41l-4,6a.51.51,0,0,1-.34.21Z"/><path class="cls-1" d="M34.5,46h-8a.5.5,0,0,1,0-1h8A1.5,1.5,0,0,0,36,43.5V35.92a.5.5,0,0,1,1,0V43.5A2.5,2.5,0,0,1,34.5,46Z"/><path class="cls-1" d="M40.5,48.91a.5.5,0,0,1-.5-.5V36.87a.5.5,0,0,1,1,0V48.41A.5.5,0,0,1,40.5,48.91Z"/><path class="cls-1" d="M12.5,48.91a.5.5,0,0,1-.5-.5V36.87a.5.5,0,0,1,1,0V48.41A.5.5,0,0,1,12.5,48.91Z"/><path class="cls-1" d="M38,17H15a2,2,0,0,1,0-4h4.66a.5.5,0,0,1,0,1H15a1,1,0,0,0,0,2H38a1,1,0,0,0,0-2H35.66a.5.5,0,0,1,0-1H38a2,2,0,0,1,0,4Z"/><path class="cls-1" d="M28.5,14h-.06a.51.51,0,0,1-.44-.56l.88-7.88a.49.49,0,0,0-.12-.39A.5.5,0,0,0,28.38,5H24.62a.5.5,0,0,0-.38.17.49.49,0,0,0-.12.39L25,13.44a.51.51,0,0,1-.44.56.51.51,0,0,1-.56-.44l-.87-7.89A1.51,1.51,0,0,1,23.5,4.5,1.49,1.49,0,0,1,24.62,4h3.76a1.49,1.49,0,0,1,1.12.5,1.51,1.51,0,0,1,.37,1.17L29,13.56A.51.51,0,0,1,28.5,14Z"/></g></g></svg>