<svg xmlns="http://www.w3.org/2000/svg" viewBox="0 0 53 53"><defs><style>.cls-1{fill:#1b3249;}</style></defs><title>Asset 231</title><g id="Layer_2" data-name="Layer 2"><g id="_1" data-name="1"><path class="cls-1" d="M45.5,53A7.5,7.5,0,1,1,53,45.5,7.5,7.5,0,0,1,45.5,53Zm0-14A6.5,6.5,0,1,0,52,45.5,6.51,6.51,0,0,0,45.5,39Z"/><path class="cls-1" d="M45.5,49A3.5,3.5,0,1,1,49,45.5,3.5,3.5,0,0,1,45.5,49Zm0-6A2.5,2.5,0,1,0,48,45.5,2.5,2.5,0,0,0,45.5,43Z"/><path class="cls-1" d="M20.6,37.38a.5.5,0,0,1-.49-.38L16.52,22.62a.48.48,0,0,1,.09-.43A.49.49,0,0,1,17,22H50.9a.51.51,0,0,1,.47.68l-5.4,14a.51.51,0,0,1-.65.29.5.5,0,0,1-.29-.65L50.17,23H17.64l3.44,13.76a.51.51,0,0,1-.36.61Z"/><path class="cls-1" d="M14.77,53a1.31,1.31,0,0,1-1.2-1.86l6.57-14.46a.49.49,0,0,1,.66-.25.5.5,0,0,1,.25.66L14.48,51.55a.32.32,0,0,0,0,.3.31.31,0,0,0,.27.15,1.26,1.26,0,0,0,.88-.37L27.72,39.11a.51.51,0,0,1,.71,0,.5.5,0,0,1,0,.71L16.37,52.32A2.25,2.25,0,0,1,14.77,53Z"/><path class="cls-1" d="M45.5,46a.45.45,0,0,1-.16,0L15,35.44a.51.51,0,0,1-.32-.35L6.39,2.14A1.49,1.49,0,0,0,4.94,1H.5A.5.5,0,0,1,0,.5.5.5,0,0,1,.5,0H4.94A2.48,2.48,0,0,1,7.36,1.89l8.18,32.69L45.66,45a.5.5,0,0,1-.16,1Z"/><path class="cls-1" d="M51.5,23h-35A1.5,1.5,0,0,1,15,21.5v-2A1.5,1.5,0,0,1,16.5,18h35A1.5,1.5,0,0,1,53,19.5v2A1.5,1.5,0,0,1,51.5,23Zm-35-4a.5.5,0,0,0-.5.5v2a.5.5,0,0,0,.5.5h35a.5.5,0,0,0,.5-.5v-2a.5.5,0,0,0-.5-.5Z"/><path class="cls-1" d="M49.65,19a.5.5,0,0,1-.5-.5c0-.25,0-.51,0-.78a8.15,8.15,0,0,0-.08-1.88,2.68,2.68,0,0,0-.64-1,4.8,4.8,0,0,1-.7-1,8.36,8.36,0,0,1-.37-1,4.83,4.83,0,0,0-.55-1.31,2,2,0,0,0-.77-.53,3.35,3.35,0,0,1-.91-.59,3.84,3.84,0,0,1-.71-1,3,3,0,0,0-.66-.9,1.29,1.29,0,0,0-.7,0,2.19,2.19,0,0,1-1.31,0,3.45,3.45,0,0,1-.92-.74,2,2,0,0,0-.74-.58,1.47,1.47,0,0,0-.75.12,2.6,2.6,0,0,1-1.16.17A2.26,2.26,0,0,1,37,6.69c-.2-.2-.51-.5-.66-.5a2.28,2.28,0,0,0-.86.3,3.54,3.54,0,0,1-1,.36,2,2,0,0,0-.73.32,3.36,3.36,0,0,1-.85.41,2.39,2.39,0,0,1-.92,0c-.54-.06-.86-.07-1.21.32a2.3,2.3,0,0,1-1.55.6,2.54,2.54,0,0,0-2.28,1.41.52.52,0,0,1-.69.19.51.51,0,0,1-.19-.68,3.5,3.5,0,0,1,3-1.91c.47-.06.77-.1.93-.28a2.15,2.15,0,0,1,2-.65,2,2,0,0,0,.54,0,3.13,3.13,0,0,0,.61-.3,2.82,2.82,0,0,1,1.11-.46,3.16,3.16,0,0,0,.73-.27,2.92,2.92,0,0,1,1.29-.4A2.05,2.05,0,0,1,37.71,6a2.13,2.13,0,0,0,.62.47,1.91,1.91,0,0,0,.73-.13,2.21,2.21,0,0,1,1.33-.13A2.75,2.75,0,0,1,41.56,7a3.1,3.1,0,0,0,.63.53,1.5,1.5,0,0,0,.72,0,1.88,1.88,0,0,1,1.42.14,3.38,3.38,0,0,1,1,1.23,3.66,3.66,0,0,0,.52.77,3.21,3.21,0,0,0,.69.43,2.88,2.88,0,0,1,1.12.82,5.42,5.42,0,0,1,.7,1.61,8.28,8.28,0,0,0,.33.9,3.63,3.63,0,0,0,.55.76,3.41,3.41,0,0,1,.85,1.43,8.51,8.51,0,0,1,.11,2.15c0,.25,0,.5,0,.74A.5.5,0,0,1,49.65,19Z"/><path class="cls-1" d="M38.38,19a.5.5,0,0,1-.5-.5v-.2a4.09,4.09,0,0,0-.11-1.23,3,3,0,0,0-.44-.79c-.1-.14-.2-.28-.29-.43a2.45,2.45,0,0,1-.27-.92,1.52,1.52,0,0,0-.19-.64,2.86,2.86,0,0,0-.68-.45,6.18,6.18,0,0,1-.61-.37,2.07,2.07,0,0,0-.63-.24,3.23,3.23,0,0,1-.77-.27,3,3,0,0,1-.65-.46,2.29,2.29,0,0,0-.6-.41A3.18,3.18,0,0,0,31.9,12a6.09,6.09,0,0,1-.73-.1l-.53-.14a8.32,8.32,0,0,0-.91-.2,3.45,3.45,0,0,1-.81-.22,2.24,2.24,0,0,0-.67-.18,1.49,1.49,0,0,0-.5.29,2,2,0,0,1-.95.47,2.5,2.5,0,0,1-.92-.11,1.67,1.67,0,0,0-.59-.07,1.61,1.61,0,0,0-.55.34,3,3,0,0,1-.75.47,2.3,2.3,0,0,1-1,0,1.23,1.23,0,0,0-.54,0A1.62,1.62,0,0,0,22,13a2.89,2.89,0,0,1-.6.66,7.12,7.12,0,0,0-1,1l-.23.23a5.45,5.45,0,0,0-.75.89,3.32,3.32,0,0,1-.58.65,1.48,1.48,0,0,0-.45.52,3.68,3.68,0,0,0,0,1.07c0,.17,0,.33,0,.49a.5.5,0,0,1-.5.5.5.5,0,0,1-.5-.5c0-.14,0-.29,0-.44a4.49,4.49,0,0,1,.09-1.41,2.25,2.25,0,0,1,.73-1,2.3,2.3,0,0,0,.41-.43,5.88,5.88,0,0,1,.89-1.07l.18-.19a8.38,8.38,0,0,1,1.2-1.1,2.19,2.19,0,0,0,.38-.44,2.48,2.48,0,0,1,.81-.8,1.88,1.88,0,0,1,1.14-.09,1.56,1.56,0,0,0,.56,0,2.09,2.09,0,0,0,.47-.31,2.39,2.39,0,0,1,.95-.54,2.44,2.44,0,0,1,1.05.08,2.15,2.15,0,0,0,.57.09,1.61,1.61,0,0,0,.46-.28,1.89,1.89,0,0,1,1.1-.49,3,3,0,0,1,1,.24,2.56,2.56,0,0,0,.57.17,7.11,7.11,0,0,1,1.06.23l.49.13A4.09,4.09,0,0,0,32,11a3.9,3.9,0,0,1,1,.18,3,3,0,0,1,.9.58,3.16,3.16,0,0,0,.47.35,3.46,3.46,0,0,0,.57.19,2.7,2.7,0,0,1,1,.39,4.27,4.27,0,0,0,.51.3,4,4,0,0,1,.91.64,2,2,0,0,1,.45,1.17,2.52,2.52,0,0,0,.14.56c.09.13.17.26.26.38a3.83,3.83,0,0,1,.58,1.08,5,5,0,0,1,.15,1.51v.2A.5.5,0,0,1,38.38,19Z"/></g></g></svg>