<svg xmlns="http://www.w3.org/2000/svg" viewBox="0 0 53 53"><defs><style>.cls-1{fill:#1b3249;}</style></defs><title>Asset 271</title><g id="Layer_2" data-name="Layer 2"><g id="_1" data-name="1"><path class="cls-1" d="M18.91,40.4a.5.5,0,0,1-.35-.15.5.5,0,0,1,0-.71L33.84,24.27l-5.11-5.11L13.45,34.44a.5.5,0,0,1-.7,0,.5.5,0,0,1,0-.71L28.38,18.1a.5.5,0,0,1,.7,0l5.82,5.82a.5.5,0,0,1,0,.7L19.27,40.25A.51.51,0,0,1,18.91,40.4Z"/><path class="cls-1" d="M.5,53a.51.51,0,0,1-.5-.51L.28,34.36A16.75,16.75,0,0,1,5.14,22.77L19.65,8.26a.49.49,0,0,1,.47-.14.52.52,0,0,1,.36.32l4.84,13.72a.49.49,0,0,1-.3.64.5.5,0,0,1-.64-.3l-4.58-13-14,14a15.78,15.78,0,0,0-4.56,10.9L1,52l17.62-.27a15.78,15.78,0,0,0,10.89-4.57l14-13.95-13-4.58a.51.51,0,0,1-.31-.64.52.52,0,0,1,.64-.31l13.72,4.85a.5.5,0,0,1,.33.36.52.52,0,0,1-.14.46L30.22,47.86a16.73,16.73,0,0,1-11.58,4.86L.51,53Z"/><path class="cls-1" d="M39.36,20a.54.54,0,0,1-.36-.14L33.19,14a.49.49,0,0,1,0-.65A140.61,140.61,0,0,1,42.79,1.75a6,6,0,0,1,8.46,8.46,139.31,139.31,0,0,1-11.59,9.64A.49.49,0,0,1,39.36,20ZM34.2,13.59l5.2,5.2A131.84,131.84,0,0,0,50.54,9.5a5,5,0,0,0-7-7A132.15,132.15,0,0,0,34.2,13.59Z"/><path class="cls-1" d="M35.51,25.32a1.5,1.5,0,0,1-1.06-.43h0l-6.34-6.33a1.52,1.52,0,0,1,0-2.13l3.4-3.4a1.52,1.52,0,0,1,1.06-.44h0a1.48,1.48,0,0,1,1.06.44L40,19.36a1.47,1.47,0,0,1,.44,1.06A1.46,1.46,0,0,1,40,21.48l-3.4,3.4A1.45,1.45,0,0,1,35.51,25.32Zm-.35-1.14a.51.51,0,0,0,.71,0l3.4-3.4a.52.52,0,0,0,.14-.36.5.5,0,0,0-.14-.35l-6.34-6.34a.53.53,0,0,0-.36-.15h0a.51.51,0,0,0-.35.15l-3.4,3.4a.5.5,0,0,0,0,.71Z"/><path class="cls-1" d="M47.72,6.69a1,1,0,0,1-1.41,0,1,1,0,0,1,0-1.42,1,1,0,0,1,1.41,1.42Z"/></g></g></svg>