<svg xmlns="http://www.w3.org/2000/svg" viewBox="0 0 53 53"><defs><style>.cls-1{fill:#1b3249;}</style></defs><title>Asset 161</title><g id="Layer_2" data-name="Layer 2"><g id="_1" data-name="1"><path class="cls-1" d="M26.5,53a26.5,26.5,0,1,1,17.41-6.52.51.51,0,0,1-.71,0,.49.49,0,0,1,0-.7,25.42,25.42,0,1,0-7.5,4.54.5.5,0,0,1,.64.29.49.49,0,0,1-.28.64A26.23,26.23,0,0,1,26.5,53Z"/><path class="cls-1" d="M42.5,39h-6A1.5,1.5,0,0,1,35,37.5v-3A1.5,1.5,0,0,0,33.5,33H28.7a8.48,8.48,0,0,1-14.4,0H2.79a.5.5,0,1,1,0-1H14.58a.48.48,0,0,1,.43.25,7.49,7.49,0,0,0,13,0,.48.48,0,0,1,.43-.25H33.5A2.5,2.5,0,0,1,36,34.5v3a.5.5,0,0,0,.5.5h6a.5.5,0,0,0,.5-.5v-5A7.5,7.5,0,0,0,35.5,25H28.42a.48.48,0,0,1-.43-.25,7.49,7.49,0,0,0-13,0,.48.48,0,0,1-.43.25H2.84a.5.5,0,0,1,0-1H14.3a8.48,8.48,0,0,1,14.4,0h6.8A8.51,8.51,0,0,1,44,32.5v5A1.5,1.5,0,0,1,42.5,39Z"/><path class="cls-1" d="M21.5,34A5.51,5.51,0,0,1,16,28.5a.5.5,0,0,1,1,0A4.51,4.51,0,0,0,21.5,33a.5.5,0,0,1,0,1Z"/><path class="cls-1" d="M39.5,53A5,5,0,0,1,36,44.46l3.19-3.18a.5.5,0,0,1,.7,0L43,44.46A5,5,0,0,1,39.5,53Zm0-10.66-2.83,2.83a4,4,0,0,0,0,5.66,4.1,4.1,0,0,0,5.66,0,4,4,0,0,0,0-5.66h0Z"/><path class="cls-1" d="M39.5,50.5A2.5,2.5,0,0,1,37,48a.5.5,0,0,1,1,0,1.5,1.5,0,0,0,1.5,1.5.5.5,0,0,1,0,1Z"/><path class="cls-1" d="M10.5,17A2.5,2.5,0,1,1,13,14.5,2.5,2.5,0,0,1,10.5,17Zm0-4A1.5,1.5,0,1,0,12,14.5,1.5,1.5,0,0,0,10.5,13Z"/><path class="cls-1" d="M32.5,17A2.5,2.5,0,1,1,35,14.5,2.5,2.5,0,0,1,32.5,17Zm0-4A1.5,1.5,0,1,0,34,14.5,1.5,1.5,0,0,0,32.5,13Z"/><path class="cls-1" d="M30.5,15h-6a.5.5,0,0,1,0-1h6a.5.5,0,0,1,0,1Z"/><path class="cls-1" d="M18.5,15h-6a.5.5,0,0,1,0-1h6a.5.5,0,0,1,0,1Z"/><path class="cls-1" d="M24.5,17h-6a.5.5,0,0,1,0-1h6a.5.5,0,0,1,0,1Z"/><path class="cls-1" d="M24.5,20a.5.5,0,0,1-.5-.5v-6A1.5,1.5,0,0,0,22.5,12h-2A1.5,1.5,0,0,0,19,13.5v6a.5.5,0,0,1-1,0v-6A2.5,2.5,0,0,1,20.5,11h2A2.5,2.5,0,0,1,25,13.5v6A.5.5,0,0,1,24.5,20Z"/></g></g></svg>