<svg xmlns="http://www.w3.org/2000/svg" viewBox="0 0 53 52.97"><defs><style>.cls-1{fill:#1b3249;}</style></defs><title>Asset 211</title><g id="Layer_2" data-name="Layer 2"><g id="_1" data-name="1"><path class="cls-1" d="M15.5,23.48H8.73a.5.5,0,0,1-.47-.31.51.51,0,0,1,.11-.54l11-11a.57.57,0,0,0,0-.8l-3.7-3.7a.57.57,0,0,0-.8,0L3.72,18.28a1.55,1.55,0,0,1-2.12,0L1,17.7a3.49,3.49,0,0,1,0-4.95L12.78,1a3.59,3.59,0,0,1,5,0l9.17,9.17a1.47,1.47,0,0,1,.44,1.06,1.46,1.46,0,0,1-.44,1.06l-11,11A.47.47,0,0,1,15.5,23.48Zm-5.57-1h5.36L26.2,11.58a.51.51,0,0,0,0-.71h0L17,1.7a2.5,2.5,0,0,0-3.54,0L1.73,13.46a2.5,2.5,0,0,0,0,3.53l.58.58a.51.51,0,0,0,.71,0L14.15,6.43a1.58,1.58,0,0,1,2.21,0l3.71,3.71a1.58,1.58,0,0,1,0,2.21Z"/><path class="cls-1" d="M40.5,53h-.06l-2-.26a.5.5,0,0,1-.44-.45l-.22-3-3-.23a.49.49,0,0,1-.46-.46l-.23-3-3-.23a.49.49,0,0,1-.46-.46l-.23-3-3-.22A.49.49,0,0,1,27,41.2l-.23-3-3-.23a.49.49,0,0,1-.46-.46l-.23-3-3-.22a.51.51,0,0,1-.46-.46l-.23-3-3-.23a.49.49,0,0,1-.46-.46l-.24-3-3-.24a.49.49,0,0,1-.46-.46L11.93,23a.5.5,0,0,1,.46-.54.51.51,0,0,1,.54.46l.23,3,3,.23a.51.51,0,0,1,.46.46l.23,3,3,.23a.51.51,0,0,1,.46.46l.23,3,3,.23A.5.5,0,0,1,24,34l.22,3,3,.22a.5.5,0,0,1,.46.47l.22,3,3,.22a.5.5,0,0,1,.47.46l.22,3,3,.22a.51.51,0,0,1,.46.46l.23,3,3,.23a.49.49,0,0,1,.46.46l.23,3,1.36.18L51.79,40.47,24.9,13.58a.51.51,0,0,1,0-.71.5.5,0,0,1,.71,0L52.85,40.11a.5.5,0,0,1,0,.71l-12,12A.51.51,0,0,1,40.5,53Z"/><path class="cls-1" d="M28.16,23.63a.47.47,0,0,1-.35-.15L24.63,20.3a.5.5,0,0,1,0-.71.5.5,0,0,1,.7,0l3.18,3.18a.5.5,0,0,1,0,.71A.47.47,0,0,1,28.16,23.63Z"/><path class="cls-1" d="M45.93,41.4a.47.47,0,0,1-.35-.15L29.79,25.46a.5.5,0,0,1,0-.71.5.5,0,0,1,.7,0L46.28,40.54a.5.5,0,0,1,0,.71A.47.47,0,0,1,45.93,41.4Z"/></g></g></svg>