<svg xmlns="http://www.w3.org/2000/svg" viewBox="0 0 53 53"><defs><style>.cls-1{fill:#1b3249;}</style></defs><title>Asset 121</title><g id="Layer_2" data-name="Layer 2"><g id="_1" data-name="1"><path class="cls-1" d="M52.5,45h-10a.5.5,0,0,1,0-1h10a.5.5,0,0,1,0,1Z"/><path class="cls-1" d="M10.5,45H.5a.5.5,0,0,1,0-1h10a.5.5,0,0,1,0,1Z"/><path class="cls-1" d="M46.5,45a.5.5,0,0,1-.5-.5V1H7V44.5a.5.5,0,0,1-1,0V.5A.5.5,0,0,1,6.5,0h40a.5.5,0,0,1,.5.5v44A.5.5,0,0,1,46.5,45Z"/><path class="cls-1" d="M42.5,45h-10a.5.5,0,0,1,0-1H42V5H11V44.5a.5.5,0,0,1-1,0V4.5a.5.5,0,0,1,.5-.5h32a.5.5,0,0,1,.5.5v40A.5.5,0,0,1,42.5,45Z"/><path class="cls-1" d="M32.5,53a.47.47,0,0,1-.17,0l-22-8A.5.5,0,0,1,10,44.5V4.5A.5.5,0,0,1,10.67,4l22,8a.5.5,0,0,1,.33.47v40a.51.51,0,0,1-.21.41A.52.52,0,0,1,32.5,53ZM11,44.15l21,7.64V12.85L11,5.21Z"/><path class="cls-1" d="M28.5,35a.5.5,0,0,1-.5-.5v-6a.5.5,0,0,1,1,0v6A.5.5,0,0,1,28.5,35Z"/><path class="cls-1" d="M42.5,5a.47.47,0,0,1-.35-.15.48.48,0,0,1,0-.7l4-4a.48.48,0,0,1,.7,0,.48.48,0,0,1,0,.7l-4,4A.47.47,0,0,1,42.5,5Z"/><path class="cls-1" d="M10.5,5a.47.47,0,0,1-.35-.15l-4-4a.48.48,0,0,1,0-.7.48.48,0,0,1,.7,0l4,4a.48.48,0,0,1,0,.7A.47.47,0,0,1,10.5,5Z"/><path class="cls-1" d="M30.5,35h-2a.5.5,0,0,1,0-1h2a.5.5,0,0,1,0,1Z"/><path class="cls-1" d="M30.5,29h-2a.5.5,0,0,1,0-1h2a.5.5,0,0,1,0,1Z"/></g></g></svg>