<svg xmlns="http://www.w3.org/2000/svg" viewBox="0 0 53 53"><defs><style>.cls-1{fill:#1b3249;}</style></defs><title>Asset 191</title><g id="Layer_2" data-name="Layer 2"><g id="_1" data-name="1"><path class="cls-1" d="M36.5,53a.5.5,0,0,1-.5-.5v-6a.5.5,0,0,1,1,0v6A.5.5,0,0,1,36.5,53Z"/><path class="cls-1" d="M36.5,39a.5.5,0,0,1-.5-.5v-20a.5.5,0,0,1,1,0v20A.5.5,0,0,1,36.5,39Z"/><path class="cls-1" d="M36.5,15a.5.5,0,0,1-.5-.5v-2A1.5,1.5,0,0,0,34.5,11h-23a.5.5,0,0,1,0-1h23A2.5,2.5,0,0,1,37,12.5v2A.5.5,0,0,1,36.5,15Z"/><path class="cls-1" d="M7.5,11H.5a.5.5,0,0,1,0-1h7a.5.5,0,0,1,0,1Z"/><path class="cls-1" d="M7.5,3H.5a.5.5,0,0,1,0-1h7a.5.5,0,0,1,0,1Z"/><path class="cls-1" d="M52.5,3h-41a.5.5,0,0,1,0-1h41a.5.5,0,0,1,0,1Z"/><path class="cls-1" d="M44.5,15a.5.5,0,0,1-.5-.5v-2A2.5,2.5,0,0,1,46.5,10h6a.5.5,0,0,1,0,1h-6A1.5,1.5,0,0,0,45,12.5v2A.5.5,0,0,1,44.5,15Z"/><path class="cls-1" d="M44.5,39a.5.5,0,0,1-.5-.5v-20a.5.5,0,0,1,1,0v20A.5.5,0,0,1,44.5,39Z"/><path class="cls-1" d="M44.5,53a.5.5,0,0,1-.5-.5v-6a.5.5,0,0,1,1,0v6A.5.5,0,0,1,44.5,53Z"/><path class="cls-1" d="M52.5,47h-26A10.51,10.51,0,0,1,16,36.5v-1a.5.5,0,0,1,1,0v1A9.51,9.51,0,0,0,26.5,46h26a.5.5,0,0,1,0,1Z"/><path class="cls-1" d="M16.5,32a.5.5,0,0,1-.5-.5v-1A1.5,1.5,0,0,0,14.5,29H.5a.5.5,0,0,1,0-1h14A2.5,2.5,0,0,1,17,30.5v1A.5.5,0,0,1,16.5,32Z"/><path class="cls-1" d="M24.5,32a.5.5,0,0,1-.5-.5v-1A9.51,9.51,0,0,0,14.5,21H.5a.5.5,0,0,1,0-1h14A10.51,10.51,0,0,1,25,30.5v1A.5.5,0,0,1,24.5,32Z"/><path class="cls-1" d="M52.5,39h-26A2.5,2.5,0,0,1,24,36.5v-1a.5.5,0,0,1,1,0v1A1.5,1.5,0,0,0,26.5,38h26a.5.5,0,0,1,0,1Z"/><path class="cls-1" d="M45.5,19h-10A1.5,1.5,0,0,1,34,17.5v-2A1.5,1.5,0,0,1,35.5,14h10A1.5,1.5,0,0,1,47,15.5v2A1.5,1.5,0,0,1,45.5,19Zm-10-4a.5.5,0,0,0-.5.5v2a.5.5,0,0,0,.5.5h10a.5.5,0,0,0,.5-.5v-2a.5.5,0,0,0-.5-.5Z"/><path class="cls-1" d="M25.5,36h-10A1.5,1.5,0,0,1,14,34.5v-2A1.5,1.5,0,0,1,15.5,31h10A1.5,1.5,0,0,1,27,32.5v2A1.5,1.5,0,0,1,25.5,36Zm-10-4a.5.5,0,0,0-.5.5v2a.5.5,0,0,0,.5.5h10a.5.5,0,0,0,.5-.5v-2a.5.5,0,0,0-.5-.5Z"/><path class="cls-1" d="M10.5,13h-2A1.5,1.5,0,0,1,7,11.5V1.5A1.5,1.5,0,0,1,8.5,0h2A1.5,1.5,0,0,1,12,1.5v10A1.5,1.5,0,0,1,10.5,13ZM8.5,1a.5.5,0,0,0-.5.5v10a.5.5,0,0,0,.5.5h2a.5.5,0,0,0,.5-.5V1.5a.5.5,0,0,0-.5-.5Z"/></g></g></svg>