<svg xmlns="http://www.w3.org/2000/svg" viewBox="0 0 53 53"><defs><style>.cls-1{fill:#1b3249;}</style></defs><title>Asset 331</title><g id="Layer_2" data-name="Layer 2"><g id="_1" data-name="1"><path class="cls-1" d="M52.5,53H.5a.5.5,0,0,1,0-1h52a.5.5,0,0,1,0,1Z"/><path class="cls-1" d="M52.5,14a.47.47,0,0,1-.3-.1L35.33,1H17.67L.8,13.9a.51.51,0,0,1-.7-.1.51.51,0,0,1,.1-.7l17-13a.51.51,0,0,1,.3-.1h18a.51.51,0,0,1,.3.1l17,13a.5.5,0,0,1-.3.9Z"/><path class="cls-1" d="M50.5,53H2.5a.5.5,0,0,1-.5-.5V12a.5.5,0,0,1,1,0V52H50V12a.5.5,0,1,1,1,0V52.5A.5.5,0,0,1,50.5,53Z"/><path class="cls-1" d="M31.5,53h-10a.5.5,0,0,1-.5-.5v-19A1.5,1.5,0,0,1,22.5,32h8A1.5,1.5,0,0,1,32,33.5v19A.5.5,0,0,1,31.5,53ZM22,52h9V33.5a.5.5,0,0,0-.5-.5h-8a.5.5,0,0,0-.5.5Z"/><path class="cls-1" d="M31.5,27h-10a.5.5,0,0,1-.5-.5v-11A1.5,1.5,0,0,1,22.5,14h8A1.5,1.5,0,0,1,32,15.5v11A.5.5,0,0,1,31.5,27ZM22,26h9V15.5a.5.5,0,0,0-.5-.5h-8a.5.5,0,0,0-.5.5Z"/><circle class="cls-1" cx="28.5" cy="44.5" r="1"/><path class="cls-1" d="M46.5,45h-10a.5.5,0,0,1-.5-.5v-11A1.5,1.5,0,0,1,37.5,32h8A1.5,1.5,0,0,1,47,33.5v11A.5.5,0,0,1,46.5,45ZM37,44h9V33.5a.5.5,0,0,0-.5-.5h-8a.5.5,0,0,0-.5.5Z"/><path class="cls-1" d="M46.5,38h-10a.5.5,0,0,1,0-1h10a.5.5,0,0,1,0,1Z"/><path class="cls-1" d="M16.5,45H6.5a.5.5,0,0,1-.5-.5v-11A1.5,1.5,0,0,1,7.5,32h8A1.5,1.5,0,0,1,17,33.5v11A.5.5,0,0,1,16.5,45ZM7,44h9V33.5a.5.5,0,0,0-.5-.5h-8a.5.5,0,0,0-.5.5Z"/><path class="cls-1" d="M16.5,38H6.5a.5.5,0,0,1,0-1h10a.5.5,0,0,1,0,1Z"/><path class="cls-1" d="M47,45H36a.5.5,0,0,1,0-1H47a.5.5,0,0,1,0,1Z"/><path class="cls-1" d="M17,45H6a.5.5,0,0,1,0-1H17a.5.5,0,0,1,0,1Z"/><path class="cls-1" d="M16.5,27H6.5a.5.5,0,0,1-.5-.5v-11A1.5,1.5,0,0,1,7.5,14h8A1.5,1.5,0,0,1,17,15.5v11A.5.5,0,0,1,16.5,27ZM7,26h9V15.5a.5.5,0,0,0-.5-.5h-8a.5.5,0,0,0-.5.5Z"/><path class="cls-1" d="M16.5,20H6.5a.5.5,0,0,1,0-1h10a.5.5,0,0,1,0,1Z"/><path class="cls-1" d="M17,27H6a.5.5,0,0,1,0-1H17a.5.5,0,0,1,0,1Z"/><path class="cls-1" d="M46.5,27h-10a.5.5,0,0,1-.5-.5v-11A1.5,1.5,0,0,1,37.5,14h8A1.5,1.5,0,0,1,47,15.5v11A.5.5,0,0,1,46.5,27ZM37,26h9V15.5a.5.5,0,0,0-.5-.5h-8a.5.5,0,0,0-.5.5Z"/><path class="cls-1" d="M46.5,20h-10a.5.5,0,0,1,0-1h10a.5.5,0,0,1,0,1Z"/><path class="cls-1" d="M31.5,20h-10a.5.5,0,0,1,0-1h10a.5.5,0,0,1,0,1Z"/><path class="cls-1" d="M47,27H36a.5.5,0,0,1,0-1H47a.5.5,0,0,1,0,1Z"/><path class="cls-1" d="M32,27H21a.5.5,0,0,1,0-1H32a.5.5,0,0,1,0,1Z"/></g></g></svg>