<svg xmlns="http://www.w3.org/2000/svg" viewBox="0 0 35 53"><defs><style>.cls-1{fill:#1b3249;}</style></defs><title>Asset 291</title><g id="Layer_2" data-name="Layer 2"><g id="_1" data-name="1"><path class="cls-1" d="M27.5,25H7.5a.47.47,0,0,1-.35-.15l-7-7A.47.47,0,0,1,0,17.5v-9a.47.47,0,0,1,.15-.35l4-4A.47.47,0,0,1,4.5,4h26a.47.47,0,0,1,.35.15l4,4A.47.47,0,0,1,35,8.5v9a.47.47,0,0,1-.15.35l-7,7A.47.47,0,0,1,27.5,25ZM7.71,24H27.29L34,17.29V8.71L30.29,5H4.71L1,8.71v8.58Z"/><path class="cls-1" d="M26.5,5a.5.5,0,0,1-.5-.5V.5a.5.5,0,0,1,1,0v4A.5.5,0,0,1,26.5,5Z"/><path class="cls-1" d="M23.5,5a.5.5,0,0,1-.5-.5V.5a.5.5,0,0,1,1,0v4A.5.5,0,0,1,23.5,5Z"/><path class="cls-1" d="M8.5,5A.5.5,0,0,1,8,4.5V.5a.5.5,0,0,1,1,0v4A.5.5,0,0,1,8.5,5Z"/><path class="cls-1" d="M11.5,5a.5.5,0,0,1-.5-.5V.5a.5.5,0,0,1,1,0v4A.5.5,0,0,1,11.5,5Z"/><path class="cls-1" d="M17.48,53a13.77,13.77,0,0,1-2.22-.19A12.6,12.6,0,0,1,5.2,42.74,12.47,12.47,0,0,1,12.73,29a3,3,0,0,0,1.66-2.78V24.5a.5.5,0,0,1,1,0v1.67a4,4,0,0,1-2.28,3.7,11.5,11.5,0,0,0,2.32,22,11.66,11.66,0,0,0,9.46-2.51A11.47,11.47,0,0,0,29,40.5a2.11,2.11,0,0,0-4.22,0,7.28,7.28,0,1,1-10.06-6.73,8.11,8.11,0,0,0,4.89-7.6V24.5a.5.5,0,0,1,.5-.5.5.5,0,0,1,.5.5v1.67a9.1,9.1,0,0,1-5.51,8.52,6.29,6.29,0,1,0,8.68,5.81,3.11,3.11,0,0,1,6.22,0A12.48,12.48,0,0,1,17.48,53Z"/><path class="cls-1" d="M17.5,21A6.5,6.5,0,1,1,24,14.5,6.51,6.51,0,0,1,17.5,21Zm0-12A5.5,5.5,0,1,0,23,14.5,5.51,5.51,0,0,0,17.5,9Z"/><circle class="cls-1" cx="29.5" cy="18.5" r="1"/><circle class="cls-1" cx="29.5" cy="7.5" r="1"/><circle class="cls-1" cx="5.5" cy="7.5" r="1"/><circle class="cls-1" cx="5.5" cy="18.5" r="1"/></g></g></svg>