<svg xmlns="http://www.w3.org/2000/svg" viewBox="0 0 53 53"><defs><style>.cls-1{fill:#1b3249;}</style></defs><title>Asset 221</title><g id="Layer_2" data-name="Layer 2"><g id="_1" data-name="1"><path class="cls-1" d="M38.5,37h-28A10.51,10.51,0,0,1,0,26.5v-16A10.51,10.51,0,0,1,10.5,0h16a.47.47,0,0,1,.35.15l10,10a.47.47,0,0,1,.15.35v14A1.5,1.5,0,0,0,38.5,26,2.5,2.5,0,0,1,41,28.5v6A2.5,2.5,0,0,1,38.5,37ZM10.5,1A9.51,9.51,0,0,0,1,10.5v16A9.51,9.51,0,0,0,10.5,36h28A1.5,1.5,0,0,0,40,34.5v-6A1.5,1.5,0,0,0,38.5,27,2.5,2.5,0,0,1,36,24.5V10.71L26.29,1Z"/><path class="cls-1" d="M18.5,30A11.5,11.5,0,1,1,30,18.5,11.51,11.51,0,0,1,18.5,30Zm0-22A10.5,10.5,0,1,0,29,18.5,10.51,10.51,0,0,0,18.5,8Z"/><circle class="cls-1" cx="6.5" cy="6.5" r="1"/><circle class="cls-1" cx="6.5" cy="30.5" r="1"/><circle class="cls-1" cx="36.5" cy="30.5" r="1"/><path class="cls-1" d="M52.5,53H11a5,5,0,0,1,0-10H48a4,4,0,0,0,0-8H40.5a.5.5,0,0,1,0-1H48a5,5,0,0,1,0,10H11a4,4,0,0,0,0,8H52V49.5a.5.5,0,0,1,1,0v3A.5.5,0,0,1,52.5,53Z"/><path class="cls-1" d="M35.5,10a.5.5,0,0,1-.5-.5v-4A3.5,3.5,0,0,0,31.5,2h-4a.5.5,0,0,1,0-1h4A4.51,4.51,0,0,1,36,5.5v4A.5.5,0,0,1,35.5,10Z"/></g></g></svg>