<svg xmlns="http://www.w3.org/2000/svg" viewBox="0 0 53 53"><defs><style>.cls-1{fill:#1b3249;}</style></defs><title>Asset 241</title><g id="Layer_2" data-name="Layer 2"><g id="_1" data-name="1"><path class="cls-1" d="M35.24,45H14.5a.5.5,0,0,1-.5-.5v-16a.5.5,0,0,1,.5-.5h10a.51.51,0,0,1,.5.5.5.5,0,0,1-.5.5H15V44H34.74V34.51a.5.5,0,0,1,.5-.5.5.5,0,0,1,.5.5v10A.5.5,0,0,1,35.24,45Z"/><path class="cls-1" d="M35.24,32a.51.51,0,0,1-.5-.5V29H28a.5.5,0,0,1-.5-.5A.51.51,0,0,1,28,28h7.26a.5.5,0,0,1,.5.5v3A.5.5,0,0,1,35.24,32Z"/><path class="cls-1" d="M20.52,37h-6a.5.5,0,0,1-.5-.5v-8a.5.5,0,0,1,.5-.5h6a.51.51,0,0,1,.5.5v3a.5.5,0,0,1-.5.5.5.5,0,0,1-.5-.5V29H15v7h5v-1.5a.5.5,0,0,1,.5-.5.5.5,0,0,1,.5.5v2A.51.51,0,0,1,20.52,37Z"/><path class="cls-1" d="M20.52,45h-6a.5.5,0,0,1-.5-.5v-8a.5.5,0,0,1,.5-.5h6a.5.5,0,0,1,.5.5v3a.51.51,0,0,1-.5.5.5.5,0,0,1-.5-.5V37H15v7h5V42.5a.5.5,0,0,1,.5-.5.5.5,0,0,1,.5.5v2A.5.5,0,0,1,20.52,45Z"/><path class="cls-1" d="M44.5,29h-3a.5.5,0,0,1-.5-.5.5.5,0,0,1,.5-.5H44V15H31.48V28.51a.5.5,0,0,1-.5.5.5.5,0,0,1-.5-.5v-14A.5.5,0,0,1,31,14H44.5a.5.5,0,0,1,.5.5v14A.5.5,0,0,1,44.5,29Z"/><path class="cls-1" d="M44.5,37H35.24a.51.51,0,0,1-.5-.5.5.5,0,0,1,.5-.5H44v-7.5a.5.5,0,0,1,1,0v8A.5.5,0,0,1,44.5,37Z"/><path class="cls-1" d="M38.24,29h-3a.5.5,0,0,1-.5-.5.51.51,0,0,1,.5-.5h3a.5.5,0,0,1,.5.5A.5.5,0,0,1,38.24,29Z"/><path class="cls-1" d="M31,29a.5.5,0,0,1-.5-.5V15H15V28.51a.5.5,0,1,1-1,0v-14a.5.5,0,0,1,.5-.5H31a.5.5,0,0,1,.5.5v14A.5.5,0,0,1,31,29Z"/><path class="cls-1" d="M50.5,53H6.5A6.51,6.51,0,0,1,0,46.5.5.5,0,0,1,.5,46a.5.5,0,0,1,.5.5A5.51,5.51,0,0,0,6.5,52h44A1.5,1.5,0,0,0,52,50.5V8.5A1.5,1.5,0,0,0,50.5,7H6.5a.5.5,0,0,1,0-1h44A2.5,2.5,0,0,1,53,8.5v42A2.5,2.5,0,0,1,50.5,53Z"/><path class="cls-1" d="M.5,47a.5.5,0,0,1-.5-.5V6.5A6.51,6.51,0,0,1,6.5,0,.5.5,0,0,1,7,.5v40a.5.5,0,0,1-.5.5A5.51,5.51,0,0,0,1,46.5.5.5,0,0,1,.5,47ZM6,1A5.52,5.52,0,0,0,1,6.5V43a6.52,6.52,0,0,1,5-3Z"/></g></g></svg>