<svg xmlns="http://www.w3.org/2000/svg" viewBox="0 0 53 53"><defs><style>.cls-1{fill:#1b3249;}</style></defs><title>Asset 101</title><g id="Layer_2" data-name="Layer 2"><g id="_1" data-name="1"><path class="cls-1" d="M50.5,29h-14a.5.5,0,0,1,0-1h14a1.5,1.5,0,0,0,0-3H2.5a1.5,1.5,0,0,0,0,3h6a.5.5,0,0,1,0,1h-6a2.5,2.5,0,0,1,0-5h48a2.5,2.5,0,0,1,0,5Z"/><path class="cls-1" d="M29.5,53a.5.5,0,0,1-.5-.5V47H24v5.5a.5.5,0,0,1-1,0v-6a.5.5,0,0,1,.5-.5h6a.5.5,0,0,1,.5.5v6A.5.5,0,0,1,29.5,53Z"/><path class="cls-1" d="M35.5,43h-18A14.52,14.52,0,0,1,3,28.5a.5.5,0,0,1,1,0A13.52,13.52,0,0,0,17.5,42h18A13.52,13.52,0,0,0,49,28.5a.5.5,0,0,1,1,0A14.52,14.52,0,0,1,35.5,43Z"/><path class="cls-1" d="M29.5,47h-6A4.51,4.51,0,0,1,19,42.5a.5.5,0,0,1,.5-.5h14a.5.5,0,0,1,.5.5A4.51,4.51,0,0,1,29.5,47ZM20,43a3.5,3.5,0,0,0,3.46,3h6A3.5,3.5,0,0,0,33,43Z"/><path class="cls-1" d="M19.5,23h-.08a.49.49,0,0,1-.41-.57l.8-4.84a.45.45,0,0,0-.11-.4.48.48,0,0,0-.38-.18H15.68a.48.48,0,0,0-.38.18.45.45,0,0,0-.11.4l.8,4.84a.5.5,0,0,1-1,.16l-.81-4.83a1.5,1.5,0,0,1,.34-1.22A1.47,1.47,0,0,1,15.68,16h3.64a1.47,1.47,0,0,1,1.14.53,1.5,1.5,0,0,1,.34,1.22L20,22.58A.49.49,0,0,1,19.5,23Z"/><path class="cls-1" d="M37.5,23h-.08a.49.49,0,0,1-.41-.57l.8-4.84a.45.45,0,0,0-.11-.4.48.48,0,0,0-.38-.18H33.68a.48.48,0,0,0-.38.18.45.45,0,0,0-.11.4l.8,4.84a.5.5,0,0,1-1,.16l-.81-4.83a1.5,1.5,0,0,1,.34-1.22A1.47,1.47,0,0,1,33.68,16h3.64a1.47,1.47,0,0,1,1.14.53,1.5,1.5,0,0,1,.34,1.22L38,22.58A.49.49,0,0,1,37.5,23Z"/><path class="cls-1" d="M28.5,25h-4a.5.5,0,0,1-.5-.5V8.78A8.68,8.68,0,0,1,31.92,0,8.44,8.44,0,0,1,38.3,2.29,8.53,8.53,0,0,1,41,8.5V10a1,1,0,0,1-1,1H37a1,1,0,0,1-1-1V8.68A3.62,3.62,0,0,0,32.85,5a3.43,3.43,0,0,0-2.7.89A3.51,3.51,0,0,0,29,8.5v16A.5.5,0,0,1,28.5,25ZM25,24h3V8.5A4.51,4.51,0,0,1,33,4a4.64,4.64,0,0,1,4,4.66V10h3V8.5A7.55,7.55,0,0,0,37.62,3,7.45,7.45,0,0,0,32,1a7.67,7.67,0,0,0-7,7.76Z"/><path class="cls-1" d="M29.5,29h-14a.5.5,0,0,1,0-1h14a.5.5,0,0,1,0,1Z"/></g></g></svg>