<svg xmlns="http://www.w3.org/2000/svg" viewBox="0 0 53 53"><defs><style>.cls-1{fill:#1b3249;}</style></defs><title>Asset 81</title><g id="Layer_2" data-name="Layer 2"><g id="_1" data-name="1"><path class="cls-1" d="M50.5,53H2.5A2.5,2.5,0,0,1,0,50.5V36.41a2.5,2.5,0,0,1,2.5-2.5h48a2.5,2.5,0,0,1,2.5,2.5V50.5A2.5,2.5,0,0,1,50.5,53ZM2.5,34.91A1.5,1.5,0,0,0,1,36.41V50.5A1.5,1.5,0,0,0,2.5,52h48A1.5,1.5,0,0,0,52,50.5V36.41a1.5,1.5,0,0,0-1.5-1.5Z"/><path class="cls-1" d="M46.85,48.48H42.33a1.63,1.63,0,0,1-1.63-1.63V40.07a1.64,1.64,0,0,1,1.63-1.64h4.52a1.64,1.64,0,0,1,1.63,1.64v6.78A1.63,1.63,0,0,1,46.85,48.48Zm-4.52-9a.64.64,0,0,0-.63.64v6.78a.63.63,0,0,0,.63.63h4.52a.63.63,0,0,0,.63-.63V40.07a.64.64,0,0,0-.63-.64Z"/><path class="cls-1" d="M35.54,48.48H31a1.63,1.63,0,0,1-1.63-1.63V40.07A1.64,1.64,0,0,1,31,38.43h4.52a1.64,1.64,0,0,1,1.63,1.64v6.78A1.63,1.63,0,0,1,35.54,48.48Zm-4.52-9a.64.64,0,0,0-.63.64v6.78a.63.63,0,0,0,.63.63h4.52a.63.63,0,0,0,.63-.63V40.07a.64.64,0,0,0-.63-.64Z"/><path class="cls-1" d="M24.24,48.48H19.72a1.63,1.63,0,0,1-1.63-1.63V40.07a1.64,1.64,0,0,1,1.63-1.64h4.52a1.64,1.64,0,0,1,1.63,1.64v6.78A1.63,1.63,0,0,1,24.24,48.48Zm-4.52-9a.64.64,0,0,0-.63.64v6.78a.63.63,0,0,0,.63.63h4.52a.63.63,0,0,0,.63-.63V40.07a.64.64,0,0,0-.63-.64Z"/><path class="cls-1" d="M9.54,46.22a2.76,2.76,0,1,1,2.76-2.76A2.77,2.77,0,0,1,9.54,46.22Zm0-4.52a1.76,1.76,0,1,0,1.76,1.76A1.76,1.76,0,0,0,9.54,41.7Z"/><path class="cls-1" d="M33.62,32.67a.54.54,0,0,1-.36-.14.51.51,0,0,1,0-.71l11-11a1.76,1.76,0,0,0,0-2.49L34.65,8.76a1.76,1.76,0,0,0-2.49,0L8.43,32.48a.49.49,0,0,1-.7-.7L31.45,8.05a2.78,2.78,0,0,1,3.91,0L45,17.64a2.78,2.78,0,0,1,0,3.91l-11,11A.52.52,0,0,1,33.62,32.67Z"/><path class="cls-1" d="M35,24.42A1.6,1.6,0,0,1,33.85,24l-4.8-4.8a1.64,1.64,0,0,1,0-2.3l3.2-3.2a1.67,1.67,0,0,1,2.31,0l4.79,4.79a1.63,1.63,0,0,1,0,2.31L36.15,24A1.59,1.59,0,0,1,35,24.42ZM33.4,14.17a.63.63,0,0,0-.44.19l-3.2,3.19a.62.62,0,0,0,0,.89l4.8,4.8h0a.62.62,0,0,0,.89,0l3.2-3.2a.64.64,0,0,0,0-.89l-4.8-4.79A.64.64,0,0,0,33.4,14.17Z"/><path class="cls-1" d="M27,32.42a1.6,1.6,0,0,1-1.15-.48l-4.8-4.8a1.62,1.62,0,0,1,0-2.3l3.2-3.2a1.62,1.62,0,0,1,2.3,0l4.8,4.8a1.6,1.6,0,0,1,.48,1.15,1.59,1.59,0,0,1-.48,1.15l-3.2,3.2A1.61,1.61,0,0,1,27,32.42Zm-1.6-10.26a.67.67,0,0,0-.45.19l-3.19,3.2a.62.62,0,0,0,0,.89l4.79,4.79a.62.62,0,0,0,.89,0L30.65,28a.63.63,0,0,0,0-.9l-4.79-4.79A.67.67,0,0,0,25.41,22.16Z"/><path class="cls-1" d="M14.4,32.71a.51.51,0,0,1-.36-.15.5.5,0,0,1,0-.7l2.22-2.23a1.65,1.65,0,0,1,2.31,0l2.18,2.19a.5.5,0,0,1,0,.71.5.5,0,0,1-.7,0l-2.19-2.19a.64.64,0,0,0-.89,0l-2.22,2.22A.5.5,0,0,1,14.4,32.71Z"/><path class="cls-1" d="M.5,32.65a.5.5,0,0,1-.5-.5V2.76A2.77,2.77,0,0,1,2.76,0H16.33a2.77,2.77,0,0,1,2.76,2.76v18.9a.5.5,0,0,1-.5.5.5.5,0,0,1-.5-.5V2.76A1.76,1.76,0,0,0,16.33,1H2.76A1.76,1.76,0,0,0,1,2.76V32.15A.5.5,0,0,1,.5,32.65Z"/><path class="cls-1" d="M12.93,12.3H6.15a1.63,1.63,0,0,1-1.63-1.63V6.15A1.63,1.63,0,0,1,6.15,4.52h6.78a1.64,1.64,0,0,1,1.64,1.63v4.52A1.64,1.64,0,0,1,12.93,12.3ZM6.15,5.52a.63.63,0,0,0-.63.63v4.52a.63.63,0,0,0,.63.63h6.78a.64.64,0,0,0,.64-.63V6.15a.64.64,0,0,0-.64-.63Z"/><path class="cls-1" d="M12.93,23.61H6.15A1.63,1.63,0,0,1,4.52,22V17.46a1.63,1.63,0,0,1,1.63-1.63h6.78a1.64,1.64,0,0,1,1.64,1.63V22A1.64,1.64,0,0,1,12.93,23.61ZM6.15,16.83a.63.63,0,0,0-.63.63V22a.63.63,0,0,0,.63.63h6.78a.64.64,0,0,0,.64-.63V17.46a.64.64,0,0,0-.64-.63Z"/><path class="cls-1" d="M5,32.65a.5.5,0,0,1-.5-.5V28.76a1.63,1.63,0,0,1,1.63-1.63h3a.5.5,0,1,1,0,1h-3a.63.63,0,0,0-.63.63v3.39A.5.5,0,0,1,5,32.65Z"/></g></g></svg>