<svg xmlns="http://www.w3.org/2000/svg" viewBox="0 0 53 53"><defs><style>.cls-1{fill:#1b3249;}</style></defs><title>Asset 321</title><g id="Layer_2" data-name="Layer 2"><g id="_1" data-name="1"><path class="cls-1" d="M20.5,49h-8a.5.5,0,0,1-.5-.5v-26a.5.5,0,0,1,1,0V48h7V22.5a.5.5,0,0,1,1,0v26A.5.5,0,0,1,20.5,49Z"/><path class="cls-1" d="M24.5,53H8.5a.5.5,0,0,1-.5-.5v-3A1.5,1.5,0,0,1,9.5,48h14A1.5,1.5,0,0,1,25,49.5v3A.5.5,0,0,1,24.5,53ZM9,52H24V49.5a.5.5,0,0,0-.5-.5H9.5a.5.5,0,0,0-.5.5Z"/><path class="cls-1" d="M20.5,23h-8a.47.47,0,0,1-.35-.15l-2-2A.47.47,0,0,1,10,20.5v-10a.5.5,0,0,1,.5-.5h12a.5.5,0,0,1,.5.5v10a.47.47,0,0,1-.15.35l-2,2A.47.47,0,0,1,20.5,23Zm-7.79-1h7.58L22,20.29V11H11v9.29Z"/><path class="cls-1" d="M22.5,19h-3A3.5,3.5,0,0,1,16,15.5v-5a.5.5,0,0,1,.5-.5h6a.5.5,0,0,1,.5.5v8A.5.5,0,0,1,22.5,19ZM17,11v4.5A2.5,2.5,0,0,0,19.5,18H22V11Z"/><path class="cls-1" d="M42.5,27h-6a.49.49,0,0,1-.48-.38l-1-4a.48.48,0,0,1,.09-.43A.49.49,0,0,1,35.5,22h8a.49.49,0,0,1,.39.19.48.48,0,0,1,.09.43l-1,4A.49.49,0,0,1,42.5,27Zm-5.61-1h5.22l.75-3H36.14Z"/><path class="cls-1" d="M52.5,15h-30a.5.5,0,0,1-.5-.5v-4a.5.5,0,0,1,.5-.5h26a.47.47,0,0,1,.35.15l4,4a.48.48,0,0,1,.11.54A.5.5,0,0,1,52.5,15ZM23,14H51.29l-3-3H23Z"/><path class="cls-1" d="M48.5,11l-.15,0-32-10A.51.51,0,0,1,16,.35.51.51,0,0,1,16.65,0l32,10a.5.5,0,0,1-.15,1Z"/><path class="cls-1" d="M37.5,23a.5.5,0,0,1-.5-.5v-8a.5.5,0,0,1,1,0v8A.5.5,0,0,1,37.5,23Z"/><path class="cls-1" d="M41.5,23a.5.5,0,0,1-.5-.5v-8a.5.5,0,0,1,1,0v8A.5.5,0,0,1,41.5,23Z"/><path class="cls-1" d="M39.49,37a4.44,4.44,0,0,1-.62,0,3.5,3.5,0,0,1-.71-6.68A1.45,1.45,0,0,0,39,28.92V26.5a.5.5,0,0,1,1,0v2.42a2.43,2.43,0,0,1-1.45,2.27A2.5,2.5,0,0,0,39,36a2.49,2.49,0,0,0,3-2.46.5.5,0,0,1,1,0A3.5,3.5,0,0,1,39.49,37Z"/><path class="cls-1" d="M52.5,53H.5a.5.5,0,0,1,0-1h52a.5.5,0,0,1,0,1Z"/><path class="cls-1" d="M22.5,11a.51.51,0,0,1-.43-.24L16.5,1.47l-5.57,9.29a.5.5,0,0,1-.69.17.51.51,0,0,1-.17-.69l6-10a.52.52,0,0,1,.86,0l6,10a.51.51,0,0,1-.17.69A.48.48,0,0,1,22.5,11Z"/><path class="cls-1" d="M10.5,15H.5a.5.5,0,0,1-.5-.5v-4A.5.5,0,0,1,.5,10h10a.5.5,0,0,1,.5.5v4A.5.5,0,0,1,10.5,15ZM1,14h9V11H1Z"/><path class="cls-1" d="M4.5,19H.5a.5.5,0,0,1-.5-.5v-4A.5.5,0,0,1,.5,14h4a.5.5,0,0,1,.5.5v4A.5.5,0,0,1,4.5,19ZM1,18H4V15H1Z"/><path class="cls-1" d="M4.5,23H.5a.5.5,0,0,1-.5-.5v-4A.5.5,0,0,1,.5,18h4a.5.5,0,0,1,.5.5v4A.5.5,0,0,1,4.5,23ZM1,22H4V19H1Z"/><path class="cls-1" d="M.5,11a.48.48,0,0,1-.42-.23.5.5,0,0,1,.15-.69l16-10a.49.49,0,0,1,.69.16.49.49,0,0,1-.15.68l-16,10A.47.47,0,0,1,.5,11Z"/><path class="cls-1" d="M12.5,48a.47.47,0,0,1-.35-.15.48.48,0,0,1,0-.7l8-8a.49.49,0,0,1,.7.7l-8,8A.47.47,0,0,1,12.5,48Z"/><path class="cls-1" d="M12.5,40a.47.47,0,0,1-.35-.15.48.48,0,0,1,0-.7l8-8a.49.49,0,0,1,.7.7l-8,8A.47.47,0,0,1,12.5,40Z"/><path class="cls-1" d="M12.5,32a.47.47,0,0,1-.35-.15.48.48,0,0,1,0-.7l8-8a.49.49,0,0,1,.7.7l-8,8A.47.47,0,0,1,12.5,32Z"/></g></g></svg>