<svg xmlns="http://www.w3.org/2000/svg" viewBox="0 0 44.98 53"><defs><style>.cls-1{fill:#1b3249;}</style></defs><title>Asset 261</title><g id="Layer_2" data-name="Layer 2"><g id="_1" data-name="1"><path class="cls-1" d="M22.49,53a3.24,3.24,0,0,1-2.33-1h0L6.58,38.44a22.55,22.55,0,0,1,0-31.84,22.48,22.48,0,0,1,31.82,0,22.55,22.55,0,0,1,0,31.84L24.82,52A3.24,3.24,0,0,1,22.49,53Zm0-52A21.52,21.52,0,0,0,7.29,37.74L20.87,51.33h0a2.34,2.34,0,0,0,3.24,0L37.69,37.74A21.52,21.52,0,0,0,22.49,1Z"/><path class="cls-1" d="M22.49,35A12.5,12.5,0,1,1,35,22.52,12.52,12.52,0,0,1,22.49,35Zm0-24A11.5,11.5,0,1,0,34,22.52,11.51,11.51,0,0,0,22.49,11Z"/><path class="cls-1" d="M14.49,23a.5.5,0,0,1-.5-.5,8.51,8.51,0,0,1,8.5-8.5.5.5,0,0,1,0,1,7.5,7.5,0,0,0-7.5,7.5A.5.5,0,0,1,14.49,23Z"/></g></g></svg>