<svg xmlns="http://www.w3.org/2000/svg" viewBox="0 0 53 53"><defs><style>.cls-1{fill:#1b3249;}</style></defs><title>Asset 51</title><g id="Layer_2" data-name="Layer 2"><g id="_1" data-name="1"><path class="cls-1" d="M44.5,5H8.5A.5.5,0,0,1,8,4.5V.5A.5.5,0,0,1,8.5,0h36a.5.5,0,0,1,.5.5v4A.5.5,0,0,1,44.5,5ZM9,4H44V1H9Z"/><path class="cls-1" d="M52.5,53a.5.5,0,0,1-.49-.4L42,4.6a.5.5,0,1,1,1-.2l10,48a.5.5,0,0,1-.39.59Z"/><path class="cls-1" d="M32.5,53a.5.5,0,0,1-.49-.4L22,4.6a.5.5,0,1,1,1-.2l10,48a.5.5,0,0,1-.39.59Z"/><path class="cls-1" d="M46.67,25h-20a.5.5,0,0,1,0-1h20a.5.5,0,0,1,0,1Z"/><path class="cls-1" d="M48.75,35h-20a.5.5,0,0,1,0-1h20a.5.5,0,0,1,0,1Z"/><path class="cls-1" d="M44.58,15h-20a.5.5,0,0,1,0-1h20a.5.5,0,0,1,0,1Z"/><path class="cls-1" d="M50.83,45h-20a.5.5,0,0,1,0-1h20a.5.5,0,0,1,0,1Z"/><path class="cls-1" d="M23.75,25h-18a.5.5,0,0,1,0-1h18a.5.5,0,0,1,0,1Z"/><path class="cls-1" d="M23.87,35h-20a.5.5,0,1,1,0-1h20a.5.5,0,1,1,0,1Z"/><path class="cls-1" d="M22.58,15h-15a.5.5,0,0,1,0-1h15a.5.5,0,0,1,0,1Z"/><path class="cls-1" d="M22,45H2a.5.5,0,0,1,0-1H22a.5.5,0,0,1,0,1Z"/><path class="cls-1" d="M20.5,5a.5.5,0,0,1-.5-.5V.5a.5.5,0,0,1,1,0v4A.5.5,0,0,1,20.5,5Z"/><path class="cls-1" d="M.5,53H.41a.5.5,0,0,1-.4-.58l9-48a.5.5,0,0,1,1,.18l-9,48A.49.49,0,0,1,.5,53Z"/><path class="cls-1" d="M20.5,53h-.09a.5.5,0,0,1-.4-.58l4.57-24.36a.5.5,0,0,1,1,.18L21,52.59A.49.49,0,0,1,20.5,53Z"/></g></g></svg>