<svg xmlns="http://www.w3.org/2000/svg" viewBox="0 0 53 53"><defs><style>.cls-1{fill:#1b3249;}</style></defs><title>Asset 61</title><g id="Layer_2" data-name="Layer 2"><g id="_1" data-name="1"><path class="cls-1" d="M42.5,53h-32A3.5,3.5,0,0,1,7,49.5V4.5a.5.5,0,0,1,1,0v45A2.5,2.5,0,0,0,10.5,52h32A2.5,2.5,0,0,0,45,49.5V4.5a.5.5,0,0,1,1,0v45A3.5,3.5,0,0,1,42.5,53Z"/><path class="cls-1" d="M17.5,29H7.5A7.5,7.5,0,0,1,0,21.5V9.5A1.5,1.5,0,0,1,1.5,8h6a.5.5,0,0,1,0,1h-6a.5.5,0,0,0-.5.5v12A6.51,6.51,0,0,0,7.5,28h10a.5.5,0,0,1,0,1Z"/><path class="cls-1" d="M45.5,29h-10a.5.5,0,0,1,0-1h10A6.51,6.51,0,0,0,52,21.5V9.5a.5.5,0,0,0-.5-.5h-6a.5.5,0,0,1,0-1h6A1.5,1.5,0,0,1,53,9.5v12A7.5,7.5,0,0,1,45.5,29Z"/><path class="cls-1" d="M45.5,5h-8a.5.5,0,0,1,0-1h8a1.5,1.5,0,0,0,0-3H7.5a1.5,1.5,0,0,0,0,3h2a.5.5,0,0,1,0,1h-2a2.5,2.5,0,0,1,0-5h38a2.5,2.5,0,0,1,0,5Z"/><path class="cls-1" d="M33.5,31h-14a2.5,2.5,0,0,1,0-5h14a2.5,2.5,0,0,1,0,5Zm-14-4a1.5,1.5,0,0,0,0,3h14a1.5,1.5,0,0,0,0-3Z"/><path class="cls-1" d="M23.5,20A2.5,2.5,0,0,1,21,17.5V12.1a1.5,1.5,0,0,0-3,0v2a2.5,2.5,0,0,1-5,0V.5a.5.5,0,0,1,1,0V14.1a1.5,1.5,0,1,0,3,0v-2a2.5,2.5,0,0,1,5,0v5.4a1.5,1.5,0,0,0,3,0V.5a.5.5,0,0,1,1,0v17A2.5,2.5,0,0,1,23.5,20Z"/><path class="cls-1" d="M43.5,17A2.5,2.5,0,0,1,41,14.5V10.1a1.5,1.5,0,0,0-3,0v2a2.5,2.5,0,1,1-5,0V.5a.5.5,0,0,1,1,0V12.1a1.5,1.5,0,1,0,3,0v-2a2.5,2.5,0,0,1,5,0v4.4A1.5,1.5,0,0,0,43.5,16a.5.5,0,0,1,0,1Z"/></g></g></svg>