<svg xmlns="http://www.w3.org/2000/svg" viewBox="0 0 47 53"><defs><style>.cls-1{fill:#1b3249;}</style></defs><title>Asset 201</title><g id="Layer_2" data-name="Layer 2"><g id="_1" data-name="1"><path class="cls-1" d="M28.5,53h-10A14.51,14.51,0,0,1,4,38.5V25H1.5A1.5,1.5,0,0,1,0,23.5v-2A1.5,1.5,0,0,1,1.5,20h44A1.5,1.5,0,0,1,47,21.5v2A1.5,1.5,0,0,1,45.5,25H43V38.5A14.51,14.51,0,0,1,28.5,53ZM1.5,21a.5.5,0,0,0-.5.5v2a.5.5,0,0,0,.5.5h3a.5.5,0,0,1,.5.5v14A13.52,13.52,0,0,0,18.5,52h10A13.52,13.52,0,0,0,42,38.5v-14a.5.5,0,0,1,.5-.5h3a.5.5,0,0,0,.5-.5v-2a.5.5,0,0,0-.5-.5Z"/><path class="cls-1" d="M15.5,21h-6a.5.5,0,0,1-.5-.5V3.5a3.5,3.5,0,0,1,7,0v17A.5.5,0,0,1,15.5,21ZM10,20h5V3.5a2.5,2.5,0,0,0-5,0Z"/><path class="cls-1" d="M37.5,21h-6a.5.5,0,0,1-.5-.5V3.5a3.5,3.5,0,0,1,7,0v17A.5.5,0,0,1,37.5,21ZM32,20h5V3.5a2.5,2.5,0,0,0-5,0Z"/><path class="cls-1" d="M33.5,31h-20a.5.5,0,0,1,0-1h20a.5.5,0,0,1,0,1Z"/><path class="cls-1" d="M33.5,37h-20a.5.5,0,0,1,0-1h20a.5.5,0,0,1,0,1Z"/><path class="cls-1" d="M33.5,43h-20a.5.5,0,0,1,0-1h20a.5.5,0,0,1,0,1Z"/><path class="cls-1" d="M42.5,25h-8a.5.5,0,0,1,0-1h8a.5.5,0,0,1,0,1Z"/><path class="cls-1" d="M7.5,25h-3a.5.5,0,0,1,0-1h3a.5.5,0,0,1,0,1Z"/></g></g></svg>