<svg xmlns="http://www.w3.org/2000/svg" viewBox="0 0 53 53"><defs><style>.cls-1{fill:#1b3249;}</style></defs><title>Asset 31</title><g id="Layer_2" data-name="Layer 2"><g id="_1" data-name="1"><path class="cls-1" d="M24.53,15.66a5.13,5.13,0,0,1-2.42-.6A5.24,5.24,0,0,1,19.89,8,5.26,5.26,0,0,1,27,5.76a5.17,5.17,0,0,1,2.57,3.08,5.24,5.24,0,0,1-5,6.82Zm0-9.5a4.25,4.25,0,1,0,2,.49A4.25,4.25,0,0,0,24.55,6.16Z"/><path class="cls-1" d="M2.51,53A.5.5,0,0,1,2,52.65L0,46.24a.53.53,0,0,1,0-.39L12.44,22.2A13.56,13.56,0,0,1,29.18,1.55,13.63,13.63,0,0,1,36.36,15.2a.5.5,0,0,1-1-.12A12.57,12.57,0,0,0,11.76,7.74a12.48,12.48,0,0,0,1.66,14.07.5.5,0,0,1,.06.56L1,46.14l1.79,5.73,5.46-1.7L7.1,46.37a.5.5,0,0,1,0-.38.51.51,0,0,1,.29-.25l3.8-1.18L10,40.76a.51.51,0,0,1,.33-.63l3.8-1.19L13,35.15a.53.53,0,0,1,0-.39.55.55,0,0,1,.3-.24l4.08-1.28L21,26.31a.49.49,0,0,1,.5-.26,12.63,12.63,0,0,0,10.62-4,.5.5,0,1,1,.74.68,13.63,13.63,0,0,1-11.12,4.32l-3.57,6.81a.5.5,0,0,1-.3.25l-3.8,1.18,1.19,3.8a.5.5,0,0,1-.33.63l-3.79,1.19,1.18,3.79a.49.49,0,0,1-.32.63l-3.8,1.19,1.19,3.8a.56.56,0,0,1,0,.38.53.53,0,0,1-.29.24L2.65,53Z"/><path class="cls-1" d="M38.5,21a.5.5,0,0,1,0-1C45.94,20,52,15.74,52,10.5S45.94,1,38.5,1a17.3,17.3,0,0,0-8.3,2,.5.5,0,1,1-.49-.87A18.26,18.26,0,0,1,38.5,0C46.5,0,53,4.71,53,10.5S46.5,21,38.5,21Z"/><path class="cls-1" d="M32.5,20a.45.45,0,0,1-.16,0C27.27,18.29,24,14.56,24,10.5a8.31,8.31,0,0,1,1.65-4.88.5.5,0,0,1,.7-.12.49.49,0,0,1,.11.7A7.24,7.24,0,0,0,25,10.5c0,3.62,3,7,7.66,8.56a.51.51,0,0,1,.31.64A.49.49,0,0,1,32.5,20Z"/><path class="cls-1" d="M52.5,45h-20a.5.5,0,0,1-.5-.5v-26a.47.47,0,0,1,.15-.35l6-6A.47.47,0,0,1,38.5,12h8a.47.47,0,0,1,.35.15l6,6a.47.47,0,0,1,.15.35v26A.5.5,0,0,1,52.5,45ZM33,44H52V18.71L46.29,13H38.71L33,18.71Z"/><path class="cls-1" d="M42.5,25A4.5,4.5,0,1,1,47,20.5,4.51,4.51,0,0,1,42.5,25Zm0-8A3.5,3.5,0,1,0,46,20.5,3.5,3.5,0,0,0,42.5,17Z"/></g></g></svg>