<svg xmlns="http://www.w3.org/2000/svg" viewBox="0 0 53 53"><defs><style>.cls-1{fill:#1b3249;}</style></defs><title>Asset 41</title><g id="Layer_2" data-name="Layer 2"><g id="_1" data-name="1"><path class="cls-1" d="M49.5,49H3.5a.5.5,0,0,1-.5-.5V1.5A1.5,1.5,0,0,1,4.5,0h44A1.5,1.5,0,0,1,50,1.5v47A.5.5,0,0,1,49.5,49ZM4,48H49V1.5a.5.5,0,0,0-.5-.5H4.5a.5.5,0,0,0-.5.5Z"/><path class="cls-1" d="M45.5,45h-15a.5.5,0,0,1-.5-.5V4.5a.5.5,0,0,1,.5-.5h15a.5.5,0,0,1,.5.5v40A.5.5,0,0,1,45.5,45ZM31,44H45V5H31Z"/><path class="cls-1" d="M22.5,45H7.5a.5.5,0,0,1-.5-.5V4.5A.5.5,0,0,1,7.5,4h15a.5.5,0,0,1,.5.5v40A.5.5,0,0,1,22.5,45ZM8,44H22V5H8Z"/><path class="cls-1" d="M51.5,53H1.5A1.5,1.5,0,0,1,0,51.5v-2A1.5,1.5,0,0,1,1.5,48h50A1.5,1.5,0,0,1,53,49.5v2A1.5,1.5,0,0,1,51.5,53Zm-50-4a.5.5,0,0,0-.5.5v2a.5.5,0,0,0,.5.5h50a.5.5,0,0,0,.5-.5v-2a.5.5,0,0,0-.5-.5Z"/><path class="cls-1" d="M26.5,49a.5.5,0,0,1-.5-.5V.5a.5.5,0,0,1,1,0v48A.5.5,0,0,1,26.5,49Z"/></g></g></svg>