<svg xmlns="http://www.w3.org/2000/svg" viewBox="0 0 53 53"><defs><style>.cls-1{fill:#1b3249;}</style></defs><title>Asset 71</title><g id="Layer_2" data-name="Layer 2"><g id="_1" data-name="1"><path class="cls-1" d="M45.5,19H1.5A1.5,1.5,0,0,1,0,17.5V1.5A1.5,1.5,0,0,1,1.5,0h44A1.5,1.5,0,0,1,47,1.5v16A1.5,1.5,0,0,1,45.5,19ZM1.5,1a.5.5,0,0,0-.5.5v16a.5.5,0,0,0,.5.5h44a.5.5,0,0,0,.5-.5V1.5a.5.5,0,0,0-.5-.5Z"/><path class="cls-1" d="M24.5,14A3.5,3.5,0,0,1,21,10.5v-2a3.5,3.5,0,0,0-7,0v2a2.5,2.5,0,0,1-5,0v-2A3.5,3.5,0,0,0,5.5,5h-3a.5.5,0,0,1,0-1h3A4.51,4.51,0,0,1,10,8.5v2a1.5,1.5,0,0,0,3,0v-2a4.5,4.5,0,0,1,9,0v2a2.5,2.5,0,0,0,5,0v-5a2.5,2.5,0,0,1,5,0v2a3.5,3.5,0,0,0,7,0v-1A2.5,2.5,0,0,1,41.5,4h3a.5.5,0,0,1,0,1h-3A1.5,1.5,0,0,0,40,6.5v1a4.5,4.5,0,0,1-9,0v-2a1.5,1.5,0,0,0-3,0v5A3.5,3.5,0,0,1,24.5,14Z"/><path class="cls-1" d="M23.5,53A4.51,4.51,0,0,1,19,48.5v-14a.5.5,0,0,1,1,0v14a3.5,3.5,0,0,0,7,0v-14a.5.5,0,0,1,1,0v14A4.51,4.51,0,0,1,23.5,53Z"/><path class="cls-1" d="M27.5,35h-2a.5.5,0,0,1,0-1h2a1.5,1.5,0,0,0,0-3h-8a1.5,1.5,0,0,0,0,3h1a.5.5,0,0,1,0,1h-1a2.5,2.5,0,0,1,0-5h8a2.5,2.5,0,0,1,0,5Z"/><path class="cls-1" d="M23.5,31a.5.5,0,0,1-.5-.5v-3A3.5,3.5,0,0,1,26.5,24h23A2.5,2.5,0,0,0,52,21.5v-9A2.5,2.5,0,0,0,49.5,10h-3a.5.5,0,0,1,0-1h3A3.5,3.5,0,0,1,53,12.5v9A3.5,3.5,0,0,1,49.5,25h-23A2.5,2.5,0,0,0,24,27.5v3A.5.5,0,0,1,23.5,31Z"/></g></g></svg>