<svg xmlns="http://www.w3.org/2000/svg" viewBox="0 0 53 53"><defs><style>.cls-1{fill:#1b3249;}</style></defs><title>Asset 91</title><g id="Layer_2" data-name="Layer 2"><g id="_1" data-name="1"><path class="cls-1" d="M26.5,53a26.33,26.33,0,0,1-14.59-4.38.5.5,0,1,1,.55-.83A25.53,25.53,0,1,0,5.19,40.5a.51.51,0,0,1-.15.7.5.5,0,0,1-.69-.14A26.51,26.51,0,1,1,26.5,53Z"/><path class="cls-1" d="M26,42.89a.49.49,0,0,1-.35-.15L10.23,27.33a.49.49,0,1,1,.7-.7L26.35,42a.5.5,0,0,1,0,.7A.51.51,0,0,1,26,42.89Z"/><path class="cls-1" d="M26,42.89a.5.5,0,0,1-.14-1c9.87-2.9,13.86-9.76,14.64-11.27L22.66,12.8A29.14,29.14,0,0,1,10.84,27.41a.5.5,0,1,1-.52-.86A28.35,28.35,0,0,0,22,11.74a.5.5,0,0,1,.84-.22L41.45,30.18a.51.51,0,0,1,.11.55c-.16.36-3.88,8.74-15.43,12.14Z"/><path class="cls-1" d="M17.34,27.72a.5.5,0,0,1-.26-.93,19.29,19.29,0,0,0,8.45-11.43.51.51,0,0,1,.59-.39.5.5,0,0,1,.39.59,20,20,0,0,1-8.92,12.09A.59.59,0,0,1,17.34,27.72Z"/><path class="cls-1" d="M26.12,37.27a.5.5,0,0,1-.15-1,19.91,19.91,0,0,0,11.09-9.55.49.49,0,0,1,.66-.24.5.5,0,0,1,.25.66,20.54,20.54,0,0,1-11.7,10.08Z"/><path class="cls-1" d="M23.1,34a.49.49,0,0,1-.46-.3.5.5,0,0,1,.27-.66,20,20,0,0,0,10.4-10,.51.51,0,0,1,.65-.28.5.5,0,0,1,.28.65,20.56,20.56,0,0,1-11,10.52A.63.63,0,0,1,23.1,34Z"/><path class="cls-1" d="M20.1,30.65a.49.49,0,0,1-.45-.29.5.5,0,0,1,.24-.67,17.18,17.18,0,0,0,9.38-10.61.5.5,0,1,1,1,.23A17.85,17.85,0,0,1,20.31,30.6.54.54,0,0,1,20.1,30.65Z"/><path class="cls-1" d="M3.82,53H3.64A3.81,3.81,0,0,1,.85,51.59a4,4,0,0,1,.35-5.27l8.23-8.23a2.84,2.84,0,0,0,.33-3.64L7.22,30.77a3,3,0,0,1,.34-3.85L9,25.44a.51.51,0,0,1,.71,0L27.53,43.22a.5.5,0,0,1,0,.71l-1.48,1.48a3,3,0,0,1-3.85.35l-3.68-2.55a2.84,2.84,0,0,0-3.64.33L6.55,51.87A3.88,3.88,0,0,1,3.82,53ZM9.4,26.5,8.27,27.63A2,2,0,0,0,8,30.2l2.55,3.68a3.84,3.84,0,0,1-.45,4.91L1.91,47A3,3,0,0,0,1.62,51a2.84,2.84,0,0,0,2.07,1,2.88,2.88,0,0,0,2.15-.84l8.34-8.33a3.84,3.84,0,0,1,4.91-.44l3.68,2.54a2,2,0,0,0,2.57-.23l1.13-1.12Z"/><path class="cls-1" d="M4.53,49.85a1,1,0,1,0-1.41,0A1,1,0,0,0,4.53,49.85Z"/><path class="cls-1" d="M22.44,12.38a.5.5,0,0,1-.5-.5V2.82a.5.5,0,0,1,.5-.5.5.5,0,0,1,.5.5v9.06A.51.51,0,0,1,22.44,12.38Z"/><path class="cls-1" d="M41.1,31a.5.5,0,0,1-.5-.5v-23a.5.5,0,0,1,.5-.5.51.51,0,0,1,.5.5v23A.51.51,0,0,1,41.1,31Z"/><path class="cls-1" d="M37.51,21.29a.5.5,0,0,1-.5-.5V9.11a.5.5,0,0,1,1,0V20.79A.5.5,0,0,1,37.51,21.29Z"/><path class="cls-1" d="M33.78,17.53a.5.5,0,0,1-.5-.5v-6.7a.5.5,0,0,1,.5-.5.5.5,0,0,1,.5.5V17A.51.51,0,0,1,33.78,17.53Z"/><path class="cls-1" d="M29.76,11.33a.5.5,0,0,1-.5-.5V5.25a.5.5,0,0,1,.5-.5.5.5,0,0,1,.5.5v5.58A.5.5,0,0,1,29.76,11.33Z"/><path class="cls-1" d="M26.12,8.79a.5.5,0,0,1-.5-.5V3.72a.5.5,0,1,1,1,0V8.29A.5.5,0,0,1,26.12,8.79Z"/></g></g></svg>