<svg xmlns="http://www.w3.org/2000/svg" viewBox="0 0 53 53"><defs><style>.cls-1{fill:#1b3249;}</style></defs><title>Asset 281</title><g id="Layer_2" data-name="Layer 2"><g id="_1" data-name="1"><path class="cls-1" d="M20.5,39.15a.5.5,0,0,1-.45-.28L19,36.75a11.83,11.83,0,0,1-1.24-5.26V26.27a2.88,2.88,0,0,0-5.75,0V32.5a.5.5,0,0,1-1,0V26.27a3.88,3.88,0,0,1,7.75,0v5.22a10.8,10.8,0,0,0,1.13,4.81L21,38.43a.51.51,0,0,1-.23.67A.54.54,0,0,1,20.5,39.15Z"/><path class="cls-1" d="M37.9,48.6a.5.5,0,0,1-.5-.5v-1a8.37,8.37,0,0,1,1.66-5l.48-.64A7.36,7.36,0,0,0,41,37.1V17.5a2.5,2.5,0,0,0-5,0V27.7a.5.5,0,1,1-1,0V17.5a3.5,3.5,0,0,1,7,0V37.1a8.37,8.37,0,0,1-1.66,5l-.48.64A7.34,7.34,0,0,0,38.4,47.1v1A.5.5,0,0,1,37.9,48.6Z"/><path class="cls-1" d="M16.3,48.6a.5.5,0,0,1-.5-.5V47a5.44,5.44,0,0,0-1.61-3.89L12.9,41.81a6.49,6.49,0,0,1-1.9-4.6V32.5a.5.5,0,0,1,1,0v4.71a5.44,5.44,0,0,0,1.61,3.89l1.29,1.29A6.49,6.49,0,0,1,16.8,47V48.1A.5.5,0,0,1,16.3,48.6Z"/><path class="cls-1" d="M29.5,25.8a.5.5,0,0,1-.5-.5V12.7a3.5,3.5,0,0,1,7,0v4.2a.5.5,0,0,1-1,0V12.7a2.5,2.5,0,0,0-5,0V25.3A.5.5,0,0,1,29.5,25.8Z"/><path class="cls-1" d="M23.5,27a.5.5,0,0,1-.5-.5V7.9a3.5,3.5,0,1,1,7,0v5.4a.5.5,0,0,1-1,0V7.9a2.5,2.5,0,1,0-5,0V26.5A.5.5,0,0,1,23.5,27Z"/><path class="cls-1" d="M17.5,22.53A.5.5,0,0,1,17,22V11.5a3.5,3.5,0,0,1,7,0v3a.5.5,0,0,1-1,0v-3a2.5,2.5,0,0,0-5,0V22A.5.5,0,0,1,17.5,22.53Z"/><path class="cls-1" d="M40.5,53h-28a.47.47,0,0,1-.35-.15l-12-12A.47.47,0,0,1,0,40.5v-28a.47.47,0,0,1,.15-.35l12-12A.47.47,0,0,1,12.5,0h28a.47.47,0,0,1,.35.15l12,12a.47.47,0,0,1,.15.35v28a.47.47,0,0,1-.15.35l-12,12A.47.47,0,0,1,40.5,53ZM12.71,52H40.29L52,40.29V12.71L40.29,1H12.71L1,12.71V40.29Z"/></g></g></svg>