<svg xmlns="http://www.w3.org/2000/svg" viewBox="0 0 53 53"><defs><style>.cls-1{fill:#1b3249;}</style></defs><title>Asset 141</title><g id="Layer_2" data-name="Layer 2"><g id="_1" data-name="1"><path class="cls-1" d="M35.5,9h-18A1.5,1.5,0,0,1,16,7.5v-3A4.51,4.51,0,0,1,20.5,0h12A4.51,4.51,0,0,1,37,4.5v3A1.5,1.5,0,0,1,35.5,9Zm-15-8A3.5,3.5,0,0,0,17,4.5v3a.5.5,0,0,0,.5.5h18a.5.5,0,0,0,.5-.5v-3A3.5,3.5,0,0,0,32.5,1Z"/><path class="cls-1" d="M41.5,25h-2A2.5,2.5,0,0,1,37,22.5v-4A2.5,2.5,0,0,1,39.5,16h2A2.5,2.5,0,0,1,44,18.5v4A2.5,2.5,0,0,1,41.5,25Zm-2-8A1.5,1.5,0,0,0,38,18.5v4A1.5,1.5,0,0,0,39.5,24h2A1.5,1.5,0,0,0,43,22.5v-4A1.5,1.5,0,0,0,41.5,17Z"/><path class="cls-1" d="M13.5,25h-2A2.5,2.5,0,0,1,9,22.5v-4A2.5,2.5,0,0,1,11.5,16h2A2.5,2.5,0,0,1,16,18.5v4A2.5,2.5,0,0,1,13.5,25Zm-2-8A1.5,1.5,0,0,0,10,18.5v4A1.5,1.5,0,0,0,11.5,24h2A1.5,1.5,0,0,0,15,22.5v-4A1.5,1.5,0,0,0,13.5,17Z"/><path class="cls-1" d="M42.5,53h-4A2.5,2.5,0,0,1,36,50.5v-2a.5.5,0,0,1,.5-.5h8a.5.5,0,0,1,.5.5v2A2.5,2.5,0,0,1,42.5,53ZM37,49v1.5A1.5,1.5,0,0,0,38.5,52h4A1.5,1.5,0,0,0,44,50.5V49Z"/><path class="cls-1" d="M14.5,53h-4A2.5,2.5,0,0,1,8,50.5v-2a.5.5,0,0,1,.5-.5h8a.5.5,0,0,1,.5.5v2A2.5,2.5,0,0,1,14.5,53ZM9,49v1.5A1.5,1.5,0,0,0,10.5,52h4A1.5,1.5,0,0,0,16,50.5V49Z"/><path class="cls-1" d="M51.5,21h-6a.5.5,0,0,1,0-1h6a.5.5,0,0,0,.5-.5v-2a.5.5,0,0,0-.5-.5A1.5,1.5,0,0,1,50,15.5v-6A2.5,2.5,0,0,0,47.5,7h-11a.5.5,0,0,1,0-1h11A3.5,3.5,0,0,1,51,9.5v6a.5.5,0,0,0,.5.5A1.5,1.5,0,0,1,53,17.5v2A1.5,1.5,0,0,1,51.5,21Z"/><path class="cls-1" d="M35.5,21h-18a.5.5,0,0,1,0-1h18a.5.5,0,0,1,0,1Z"/><path class="cls-1" d="M7.5,21h-6A1.5,1.5,0,0,1,0,19.5v-2A1.5,1.5,0,0,1,1.5,16a.5.5,0,0,0,.5-.5v-6A3.5,3.5,0,0,1,5.5,6h11a.5.5,0,0,1,0,1H5.5A2.5,2.5,0,0,0,3,9.5v6A1.5,1.5,0,0,1,1.5,17a.5.5,0,0,0-.5.5v2a.5.5,0,0,0,.5.5h6a.5.5,0,0,1,0,1Z"/><path class="cls-1" d="M47.5,49H5.5A3.5,3.5,0,0,1,2,45.5v-20a.5.5,0,0,0-.5-.5A1.5,1.5,0,0,1,0,23.5v-2A1.5,1.5,0,0,1,1.5,20a.5.5,0,0,1,0,1,.5.5,0,0,0-.5.5v2a.5.5,0,0,0,.5.5A1.5,1.5,0,0,1,3,25.5v20A2.5,2.5,0,0,0,5.5,48h42A2.5,2.5,0,0,0,50,45.5v-20A1.5,1.5,0,0,1,51.5,24a.5.5,0,0,0,.5-.5v-2a.5.5,0,0,0-.5-.5.5.5,0,0,1,0-1A1.5,1.5,0,0,1,53,21.5v2A1.5,1.5,0,0,1,51.5,25a.5.5,0,0,0-.5.5v20A3.5,3.5,0,0,1,47.5,49Z"/><path class="cls-1" d="M43.5,22h-6a.5.5,0,0,1,0-1h6a.5.5,0,0,1,0,1Z"/><path class="cls-1" d="M15.5,22h-6a.5.5,0,0,1,0-1h6a.5.5,0,0,1,0,1Z"/></g></g></svg>