<svg xmlns="http://www.w3.org/2000/svg" viewBox="0 0 53 53"><defs><style>.cls-1{fill:#1b3249;}</style></defs><title>Asset 301</title><g id="Layer_2" data-name="Layer 2"><g id="_1" data-name="1"><path class="cls-1" d="M17.83,11.4H.5a.5.5,0,0,1-.5-.5V.5A.5.5,0,0,1,.5,0H17.83a.5.5,0,0,1,.5.5V10.9A.5.5,0,0,1,17.83,11.4ZM1,10.4H17.33V1H1Z"/><path class="cls-1" d="M17.83,53H.5a.5.5,0,0,1-.5-.5V42.1a.5.5,0,0,1,.5-.5H17.83a.5.5,0,0,1,.5.5V52.5A.5.5,0,0,1,17.83,53ZM1,52H17.33V42.6H1Z"/><path class="cls-1" d="M35.17,53H17.83a.5.5,0,0,1-.5-.5V42.1a.5.5,0,0,1,.5-.5H35.17a.5.5,0,0,1,.5.5V52.5A.5.5,0,0,1,35.17,53ZM18.33,52H34.67V42.6H18.33Z"/><path class="cls-1" d="M52.5,53H35.17a.5.5,0,0,1-.5-.5V42.1a.5.5,0,0,1,.5-.5H52.5a.5.5,0,0,1,.5.5V52.5A.5.5,0,0,1,52.5,53ZM35.67,52H52V42.6H35.67Z"/><path class="cls-1" d="M26.5,21.8H9.17a.5.5,0,0,1-.5-.5V10.9a.5.5,0,0,1,.5-.5H26.5a.5.5,0,0,1,.5.5V21.3A.5.5,0,0,1,26.5,21.8Zm-16.83-1H26V11.4H9.67Z"/><path class="cls-1" d="M17.83,32.2H.5a.5.5,0,0,1-.5-.5V21.3a.5.5,0,0,1,.5-.5H17.83a.5.5,0,0,1,.5.5V31.7A.5.5,0,0,1,17.83,32.2ZM1,31.2H17.33V21.8H1Z"/><path class="cls-1" d="M35.17,32.2H17.83a.5.5,0,0,1-.5-.5V21.3a.5.5,0,0,1,.5-.5H35.17a.5.5,0,0,1,.5.5V31.7A.5.5,0,0,1,35.17,32.2Zm-16.84-1H34.67V21.8H18.33Z"/><path class="cls-1" d="M52.5,32.2H35.17a.5.5,0,0,1-.5-.5V21.3a.5.5,0,0,1,.5-.5H52.5a.5.5,0,0,1,.5.5V31.7A.5.5,0,0,1,52.5,32.2Zm-16.83-1H52V21.8H35.67Z"/><path class="cls-1" d="M26.5,42.6H9.17a.5.5,0,0,1-.5-.5V31.7a.5.5,0,0,1,.5-.5H26.5a.5.5,0,0,1,.5.5V42.1A.5.5,0,0,1,26.5,42.6Zm-16.83-1H26V32.2H9.67Z"/><path class="cls-1" d="M43.83,42.6H26.5a.5.5,0,0,1-.5-.5V31.7a.5.5,0,0,1,.5-.5H43.83a.5.5,0,0,1,.5.5V42.1A.5.5,0,0,1,43.83,42.6ZM27,41.6H43.33V32.2H27Z"/><path class="cls-1" d="M9.17,21.8H.5a.5.5,0,0,1-.5-.5V10.9a.5.5,0,0,1,.5-.5H9.17a.5.5,0,0,1,.5.5V21.3A.5.5,0,0,1,9.17,21.8ZM1,20.8H8.67V11.4H1Z"/><path class="cls-1" d="M9.17,42.6H.5a.5.5,0,0,1-.5-.5V31.7a.5.5,0,0,1,.5-.5H9.17a.5.5,0,0,1,.5.5V42.1A.5.5,0,0,1,9.17,42.6ZM1,41.6H8.67V32.2H1Z"/></g></g></svg>