<svg xmlns="http://www.w3.org/2000/svg" viewBox="0 0 53 53"><defs><style>.cls-1{fill:#1b3249;}</style></defs><title>Asset 21</title><g id="Layer_2" data-name="Layer 2"><g id="_1" data-name="1"><path class="cls-1" d="M23.5,53H3.5a.5.5,0,0,1-.5-.5v-22a.5.5,0,0,1,.5-.5h20a.5.5,0,0,1,.5.5v22A.5.5,0,0,1,23.5,53ZM4,52H23V31H4Z"/><path class="cls-1" d="M21.5,31H5.5a.5.5,0,0,1-.5-.5v-20a.5.5,0,0,1,.5-.5h16a.5.5,0,0,1,.5.5v20A.5.5,0,0,1,21.5,31ZM6,30H21V11H6Z"/><path class="cls-1" d="M19.5,11H7.5a.5.5,0,0,1-.5-.5v-4A.5.5,0,0,1,7.5,6h12a.5.5,0,0,1,.5.5v4A.5.5,0,0,1,19.5,11ZM8,10H19V7H8Z"/><path class="cls-1" d="M43.5,11h-8a.5.5,0,0,1-.5-.5v-4a.5.5,0,0,1,.5-.5h8a.5.5,0,0,1,.5.5v4A.5.5,0,0,1,43.5,11ZM36,10h7V7H36Z"/><path class="cls-1" d="M49.5,53h-20a.5.5,0,0,1-.5-.5v-14a.5.5,0,0,1,.5-.5h20a.5.5,0,0,1,.5.5v14A.5.5,0,0,1,49.5,53ZM30,52H49V39H30Z"/><path class="cls-1" d="M47.5,39h-16a.5.5,0,0,1-.5-.5v-14a.5.5,0,0,1,.5-.5h16a.5.5,0,0,1,.5.5v14A.5.5,0,0,1,47.5,39ZM32,38H47V25H32Z"/><path class="cls-1" d="M45.5,25h-12a.5.5,0,0,1-.5-.5v-14a.5.5,0,0,1,.5-.5h12a.5.5,0,0,1,.5.5v14A.5.5,0,0,1,45.5,25ZM34,24H45V11H34Z"/><path class="cls-1" d="M52.5,53H.5a.5.5,0,0,1,0-1h52a.5.5,0,0,1,0,1Z"/><path class="cls-1" d="M13.5,7a.5.5,0,0,1-.5-.5V.5a.5.5,0,0,1,1,0v6A.5.5,0,0,1,13.5,7Z"/><path class="cls-1" d="M39.5,7a.5.5,0,0,1-.5-.5V.5a.5.5,0,0,1,1,0v6A.5.5,0,0,1,39.5,7Z"/><path class="cls-1" d="M39.5,23a.5.5,0,0,1-.5-.5v-10a.5.5,0,0,1,1,0v10A.5.5,0,0,1,39.5,23Z"/><path class="cls-1" d="M36.5,23a.5.5,0,0,1-.5-.5v-10a.5.5,0,0,1,1,0v10A.5.5,0,0,1,36.5,23Z"/><path class="cls-1" d="M42.5,23a.5.5,0,0,1-.5-.5v-10a.5.5,0,0,1,1,0v10A.5.5,0,0,1,42.5,23Z"/><path class="cls-1" d="M39.5,51a.5.5,0,0,1-.5-.5v-10a.5.5,0,0,1,1,0v10A.5.5,0,0,1,39.5,51Z"/><path class="cls-1" d="M36.25,51a.5.5,0,0,1-.5-.5v-10a.5.5,0,0,1,1,0v10A.5.5,0,0,1,36.25,51Z"/><path class="cls-1" d="M42.75,51a.5.5,0,0,1-.5-.5v-10a.5.5,0,0,1,1,0v10A.5.5,0,0,1,42.75,51Z"/><path class="cls-1" d="M46,51a.5.5,0,0,1-.5-.5v-10a.5.5,0,0,1,1,0v10A.5.5,0,0,1,46,51Z"/><path class="cls-1" d="M33,51a.5.5,0,0,1-.5-.5v-10a.5.5,0,0,1,1,0v10A.5.5,0,0,1,33,51Z"/><path class="cls-1" d="M13.5,51a.5.5,0,0,1-.5-.5v-18a.5.5,0,0,1,1,0v18A.5.5,0,0,1,13.5,51Z"/><path class="cls-1" d="M10.25,51a.5.5,0,0,1-.5-.5v-18a.5.5,0,0,1,1,0v18A.5.5,0,0,1,10.25,51Z"/><path class="cls-1" d="M16.75,51a.5.5,0,0,1-.5-.5v-18a.5.5,0,0,1,1,0v18A.5.5,0,0,1,16.75,51Z"/><path class="cls-1" d="M20,51a.5.5,0,0,1-.5-.5v-18a.5.5,0,0,1,1,0v18A.5.5,0,0,1,20,51Z"/><path class="cls-1" d="M7,51a.5.5,0,0,1-.5-.5v-18a.5.5,0,0,1,1,0v18A.5.5,0,0,1,7,51Z"/><path class="cls-1" d="M37.83,37a.5.5,0,0,1-.5-.5v-10a.5.5,0,0,1,.5-.5.5.5,0,0,1,.5.5v10A.5.5,0,0,1,37.83,37Z"/><path class="cls-1" d="M34.5,37a.5.5,0,0,1-.5-.5v-10a.5.5,0,0,1,1,0v10A.5.5,0,0,1,34.5,37Z"/><path class="cls-1" d="M41.17,37a.5.5,0,0,1-.5-.5v-10a.5.5,0,0,1,.5-.5.5.5,0,0,1,.5.5v10A.5.5,0,0,1,41.17,37Z"/><path class="cls-1" d="M44.5,37a.5.5,0,0,1-.5-.5v-10a.5.5,0,0,1,1,0v10A.5.5,0,0,1,44.5,37Z"/><path class="cls-1" d="M11.83,29a.5.5,0,0,1-.5-.5v-16a.5.5,0,0,1,.5-.5.5.5,0,0,1,.5.5v16A.5.5,0,0,1,11.83,29Z"/><path class="cls-1" d="M8.5,29a.5.5,0,0,1-.5-.5v-16a.5.5,0,0,1,1,0v16A.5.5,0,0,1,8.5,29Z"/><path class="cls-1" d="M15.17,29a.5.5,0,0,1-.5-.5v-16a.5.5,0,0,1,.5-.5.5.5,0,0,1,.5.5v16A.5.5,0,0,1,15.17,29Z"/><path class="cls-1" d="M18.5,29a.5.5,0,0,1-.5-.5v-16a.5.5,0,0,1,1,0v16A.5.5,0,0,1,18.5,29Z"/></g></g></svg>