<svg xmlns="http://www.w3.org/2000/svg" viewBox="0 0 64 64"><title>parquet</title><g id="parquet"><polygon points="7 57 15.99 57 7 48.01 7 57"/><path d="M7.25,28.46,7,28.71V45.19L17.15,55.34l8.49-8.49ZM17,53a1,1,0,1,1,1-1A1,1,0,0,1,17,53Zm5-5a1,1,0,1,1,1-1A1,1,0,0,1,22,48Z"/><path d="M37,38.36,18.56,56.75l.25.25H35.29L45.44,46.85ZM37,43a1,1,0,1,1,1-1A1,1,0,0,1,37,43Zm5,5a1,1,0,1,1,1-1A1,1,0,0,1,42,48Z"/><path d="M38.11,57H41a1,1,0,0,1,2,0H55.59l-8.74-8.74ZM48,52a1,1,0,1,1-1-1A1,1,0,0,1,48,52Z"/><path d="M46.5,28.82,38.36,37l9.9,9.9,8.49,8.49.25-.25V38.61L46.85,28.46ZM42,38a1,1,0,1,1,1-1A1,1,0,0,1,42,38Zm6-6a1,1,0,1,1-1-1A1,1,0,0,1,48,32Z"/><path d="M27.05,45.44,45.44,27.05,37,18.56,18.56,37ZM42,26a1,1,0,1,1-1,1A1,1,0,0,1,42,26Zm-5-5a1,1,0,1,1-1,1A1,1,0,0,1,37,21ZM27,41a1,1,0,1,1-1,1A1,1,0,0,1,27,41Zm-5-5a1,1,0,1,1-1,1A1,1,0,0,1,22,36Z"/><polygon points="48.01 7 57 15.99 57 7 48.01 7"/><path d="M38.36,17.15l8.49,8.49,1.41,1.41,8.49,8.49.25-.25V18.81L46.85,8.66ZM42,18a1,1,0,1,1,1-1A1,1,0,0,1,42,18Zm6-6a1,1,0,1,1-1-1A1,1,0,0,1,48,12Z"/><path d="M27.05,25.64,45.44,7.25,45.19,7H28.71L18.56,17.15ZM27,21a1,1,0,1,1-1,1A1,1,0,0,1,27,21Zm-5-5a1,1,0,1,1-1,1A1,1,0,0,1,22,16Z"/><path d="M25.89,7H23a1,1,0,0,1-2,0H8.41l8.74,8.74ZM16,12a1,1,0,1,1,1,1A1,1,0,0,1,16,12Z"/><path d="M17.15,35.54l8.49-8.49L7.25,8.66,7,8.91V25.39l.25.25ZM22,26a1,1,0,1,1-1,1A1,1,0,0,1,22,26Zm-5,5a1,1,0,1,1-1,1A1,1,0,0,1,17,31Z"/></g></svg>