<?xml version="1.0" encoding="utf-8"?>
<!-- Generator: Adobe Illustrator 16.0.0, SVG Export Plug-In . SVG Version: 6.00 Build 0)  -->
<!DOCTYPE svg PUBLIC "-//W3C//DTD SVG 1.0//EN" "http://www.w3.org/TR/2001/REC-SVG-20010904/DTD/svg10.dtd">
<svg version="1.0" id="Layer_1" xmlns="http://www.w3.org/2000/svg" xmlns:xlink="http://www.w3.org/1999/xlink" x="0px" y="0px"
	 width="100px" height="100px" viewBox="0 0 100 100" enable-background="new 0 0 100 100" xml:space="preserve">
<path d="M23.333,70v10c0,1.836-1.491,3.333-3.333,3.333c-1.836,0-3.333-1.497-3.333-3.333V63.333h13.332V50h6.667v13.333h20.002V50
	h6.666v13.333h20V10h-6.666v13.333H70V10H50v13.333h-6.668V10h-20v13.333h-6.667V10H10v70c0,5.521,4.479,10,10,10h60
	c5.521,0,10-4.479,10-10V70H23.333z M70,30h6.667v6.667H70V30z M70,43.333h6.667v13.333H70V43.333z M56.667,16.667h6.666v6.667
	h-6.666V16.667z M56.667,30h6.666v13.333h-6.666V30z M43.332,30H50v6.667h-6.668V30z M43.332,43.333H50v13.333h-6.668V43.333z
	 M29.999,16.667h6.667v6.667h-6.667V16.667z M29.999,30h6.667v13.333h-6.667V30z M16.665,30h6.667v6.667h-6.667V30z M16.665,43.333
	h6.667v13.333h-6.667V43.333z"/>
</svg>
